<svg width="19" height="20" viewBox="0 0 19 20" fill="none" xmlns="http://www.w3.org/2000/svg">
<path d="M15.4982 3.68615C15.4982 3.83212 15.4549 3.9748 15.3738 4.09617C15.2927 4.21753 15.1775 4.31213 15.0426 4.36798C14.9078 4.42384 14.7594 4.43846 14.6162 4.40998C14.4731 4.38151 14.3416 4.31122 14.2383 4.208C14.1351 4.10479 14.0648 3.97329 14.0364 3.83013C14.0079 3.68697 14.0225 3.53858 14.0784 3.40373C14.1342 3.26887 14.2288 3.15361 14.3502 3.07252C14.4715 2.99143 14.6142 2.94814 14.7602 2.94814C14.9559 2.94814 15.1436 3.0259 15.282 3.1643C15.4205 3.3027 15.4982 3.49042 15.4982 3.68615ZM17.7565 7.73783L14.7602 13.8264L11.7639 7.73783C10.1476 4.62343 10.1107 2.8153 11.631 1.295C12.4613 0.46577 13.5868 0 14.7602 0C15.9336 0 17.0591 0.46577 17.8894 1.295C19.4097 2.8153 19.3728 4.62343 17.7565 7.73783ZM16.9299 4.12158C17.0236 3.65553 16.9648 3.17171 16.7622 2.74168C16.5596 2.31165 16.224 1.95824 15.805 1.73373C15.386 1.50923 14.9058 1.42554 14.4356 1.49506C13.9653 1.56457 13.5299 1.78359 13.1938 2.11973C12.8576 2.45586 12.6386 2.89126 12.5691 3.36152C12.4996 3.83178 12.5833 4.31192 12.8078 4.73093C13.0323 5.14994 13.3857 5.48557 13.8157 5.68817C14.2458 5.89076 14.7296 5.94958 15.1956 5.8559C15.6234 5.76991 16.0163 5.55941 16.3249 5.25084C16.6334 4.94227 16.844 4.5494 16.9299 4.12158ZM14.0222 16.2323V17.7083H11.0701V19.1844H15.4982V16.2323H14.0222ZM3.69005 17.7083V19.1844H9.59413V17.7083H3.69005ZM1.47602 14.7563H0V19.1844H2.21403V17.7083H1.47602V14.7563ZM1.47602 13.2803V7.3762H0V13.2803H1.47602ZM1.47602 2.94814H3.69005V1.47212H0V5.90018H1.47602V2.94814ZM6.3395 4.2987L7.3801 3.25073L8.42069 4.2987L9.46867 3.25073L8.42069 2.21013L9.46867 1.16954L8.42069 0.121565L7.3801 1.16954L6.3395 0.121565L5.29153 1.16954L6.3395 2.21013L5.29153 3.25073L6.3395 4.2987Z" fill="white"/>
</svg>
