<?xml version="1.0" encoding="UTF-8"?>
<svg width="460px" height="261.436316px" viewBox="0 0 460 261.436316" version="1.1" xmlns="http://www.w3.org/2000/svg" xmlns:xlink="http://www.w3.org/1999/xlink">
    <title>Group</title>
    <g id="Suspenders-For-Running,-Cycling,-Motorcycle-Safety,-Dog-Walking" stroke="none" stroke-width="1" fill="none" fill-rule="evenodd">
        <g id="Group" fill-rule="nonzero">
            <polygon id="Path" fill="#262626" opacity="0.3" points="320 261.436316 460 191.436316 140 31.436316 0 101.436316"></polygon>
            <polygon id="Path" fill="#2D3134" points="245.9 205.736316 296.1 191.836316 261.5 171.936316 244 188.836316"></polygon>
            <polygon id="Path" fill="#000000" opacity="0.29" points="245.9 205.736316 296.1 191.836316 261.5 171.936316 244 188.836316"></polygon>
            <polygon id="Path" fill="#2D3134" points="54.5 108.436316 104.7 94.436316 70 74.536316 52.5 91.436316"></polygon>
            <polygon id="Path" fill="#000000" opacity="0.29" points="54.5 108.436316 104.7 94.436316 70 74.536316 52.5 91.436316"></polygon>
            <path d="M283.4,182.736316 C276.7,179.336316 270.6,178.936316 266.1,181.036316 L256.6,186.136316 C251.8,188.336316 248.7,193.236316 248.7,200.436316 C248.7,214.336316 260,231.336316 273.9,238.236316 C280.8,241.636316 287,242.036316 291.6,239.836316 C291.6,239.836316 301,234.836316 302,234.236316 C306.1,231.836316 308.6,227.136316 308.6,220.636316 C308.6,206.636316 297.3,189.736316 283.4,182.736316 L283.4,182.736316 Z" id="Path" fill="#2D3134"></path>
            <path d="M291.9,239.736316 C293.7,238.836316 301.1,234.836316 302,234.236316 C306.1,231.836316 308.6,227.136316 308.6,220.636316 C308.6,215.036316 306.8,208.936316 303.7,203.236316 L294.2,208.336316 C297.3,214.036316 299.1,220.136316 299.1,225.736316 C299.2,232.536316 296.4,237.436316 291.9,239.736316 L291.9,239.736316 Z" id="Path" fill="#000000" opacity="0.29"></path>
            <path d="M299.2,225.736316 C299.2,239.636316 287.9,245.336316 274,238.336316 C260.1,231.336316 248.8,214.436316 248.8,200.536316 C248.8,186.636316 260.1,180.936316 274,187.936316 C287.9,194.836316 299.2,211.836316 299.2,225.736316 Z" id="Path" fill="#2D3134"></path>
            <path d="M293.7,222.936316 C293.7,233.836316 284.9,238.236316 274,232.836316 C263.1,227.436316 254.3,214.136316 254.3,203.236316 C254.3,192.336316 263.1,187.936316 274,193.336316 C284.8,198.836316 293.7,212.036316 293.7,222.936316 Z" id="Path" fill="#E5E5E5"></path>
            <path d="M286.9,231.736316 C289.9,230.036316 291.7,226.736316 291.7,222.036316 L291.7,220.936316 L280.7,219.236316 L286.9,231.736316 Z M278.1,210.036316 L289.6,212.536316 C287.2,206.836316 282.9,201.236316 277.7,197.636316 L278.1,210.036316 Z M269.9,205.936316 L270.3,193.936316 C265.1,192.436316 260.8,193.636316 258.4,196.936316 L269.9,205.936316 Z M256.3,203.136316 L256.3,204.236316 C256.3,208.936316 258.1,214.036316 261.1,218.736316 L267.4,212.536316 L256.3,203.136316 L256.3,203.136316 Z M274,220.636316 L267.2,226.136316 C269.3,228.036316 271.6,229.636316 274,230.836316 C276.4,232.036316 278.7,232.736316 280.8,232.836316 L274,220.636316 Z" id="Shape" fill="#2D3134"></path>
            <path d="M299.2,225.736316 C299.2,239.636316 287.9,245.336316 274,238.336316 C260.1,231.336316 248.8,214.436316 248.8,200.536316 C248.8,186.636316 260.1,180.936316 274,187.936316 C287.9,194.836316 299.2,211.836316 299.2,225.736316 Z" id="Path" fill="#000000" opacity="0.11"></path>
            <path d="M91.3,86.036316 C84.6,82.636316 78.5,82.236316 74,84.336316 L64.5,89.436316 C59.7,91.636316 56.6,96.536316 56.6,103.736316 C56.6,117.636316 67.9,134.636316 81.8,141.536316 C88.7,144.936316 94.9,145.336316 99.5,143.136316 C99.5,143.136316 108.9,138.136316 109.9,137.536316 C114,135.136316 116.5,130.436316 116.5,123.936316 C116.5,109.936316 105.2,93.036316 91.3,86.036316 L91.3,86.036316 Z" id="Path" fill="#2D3134"></path>
            <path d="M99.8,143.036316 C101.6,142.136316 109,138.136316 109.9,137.536316 C114,135.136316 116.5,130.436316 116.5,123.936316 C116.5,118.336316 114.7,112.236316 111.6,106.536316 L102.1,111.636316 C105.2,117.336316 107,123.436316 107,129.036316 C107,135.836316 104.3,140.636316 99.8,143.036316 L99.8,143.036316 Z" id="Path" fill="#000000" opacity="0.29"></path>
            <path d="M107,128.936316 C107,142.836316 95.7,148.536316 81.8,141.536316 C67.9,134.536316 56.6,117.636316 56.6,103.736316 C56.6,89.836316 67.9,84.136316 81.8,91.136316 C95.8,98.136316 107,115.036316 107,128.936316 Z" id="Path" fill="#2D3134"></path>
            <path d="M101.5,126.236316 C101.5,137.136316 92.7,141.536316 81.8,136.136316 C70.9,130.736316 62.1,117.436316 62.1,106.536316 C62.1,95.636316 70.9,91.236316 81.8,96.636316 C92.7,102.036316 101.5,115.336316 101.5,126.236316 L101.5,126.236316 Z" id="Path" fill="#E5E5E5"></path>
            <path d="M94.8,134.936316 C97.8,133.236316 99.6,129.936316 99.6,125.236316 L99.6,124.136316 L88.6,122.436316 L94.8,134.936316 L94.8,134.936316 Z M85.9,113.236316 L97.4,115.736316 C95,110.036316 90.7,104.436316 85.5,100.836316 L85.9,113.236316 Z M77.7,109.136316 L78.1,97.136316 C72.9,95.636316 68.6,96.836316 66.2,100.136316 L77.7,109.136316 Z M64.1,106.336316 L64.1,107.436316 C64.1,112.136316 65.9,117.236316 68.9,121.936316 L75.2,115.736316 L64.1,106.336316 Z M81.8,123.936316 L75,129.436316 C77.1,131.336316 79.4,132.936316 81.8,134.136316 C84.2,135.336316 86.5,136.036316 88.6,136.136316 L81.8,123.936316 Z" id="Shape" fill="#2D3134"></path>
            <path d="M107,128.936316 C107,142.836316 95.7,148.536316 81.8,141.536316 C67.9,134.536316 56.6,117.636316 56.6,103.736316 C56.6,89.836316 67.9,84.136316 81.8,91.136316 C95.8,98.136316 107,115.036316 107,128.936316 Z" id="Path" fill="#000000" opacity="0.11"></path>
            <path d="M437.1,120.436316 C432.6,115.736316 379.9,74.336316 370.4,67.036316 C360.9,59.836316 289.9,11.636316 256.2,9.63631601 C222.5,7.63631601 215.7,8.73631601 201.9,5.13631601 C188.1,1.53631601 157.4,-6.16368399 110.6,9.23631601 C63.8,24.636316 33.9,53.736316 33.9,77.436316 C33.9,85.436316 35.5,93.536316 46.3,102.336316 C48.1,103.836316 50.9,105.736316 54.2,107.836316 C54,106.336316 53.8,104.836316 53.8,103.336316 C53.8,92.736316 60,85.936316 69.6,85.936316 C73.4,85.936316 77.5,87.036316 81.7,89.136316 C96.2,96.336316 107.9,114.036316 107.9,128.536316 C107.9,131.736316 107.3,134.636316 106.2,137.136316 L246.5,205.836316 C246.1,203.836316 245.9,201.936316 245.9,200.036316 C245.9,189.436316 252.1,182.636316 261.7,182.636316 C265.5,182.636316 269.6,183.736316 273.8,185.836316 C288.3,193.036316 300,210.736316 300,225.236316 C300,227.036316 299.8,228.736316 299.5,230.336316 C304.9,231.936316 312.4,233.636316 321.5,234.536316 C341.8,236.536316 375.1,230.436316 404.9,214.636316 C438.9,196.636316 452.2,179.336316 453.7,170.336316 C455.4,161.336316 441.6,125.136316 437.1,120.436316 Z" id="Path" fill="#F8EBCB"></path>
            <path d="M437.1,120.436316 C432.6,115.736316 379.9,74.336316 370.4,67.036316 C360.9,59.836316 289.9,11.636316 256.2,9.63631601 C222.5,7.63631601 215.7,8.73631601 201.9,5.13631601 C188.1,1.53631601 157.4,-6.16368399 110.6,9.23631601 C63.8,24.636316 33.9,53.736316 33.9,77.436316 C33.9,85.436316 35.5,93.536316 46.3,102.336316 C48.1,103.836316 50.9,105.736316 54.2,107.836316 C54,106.336316 53.8,104.836316 53.8,103.336316 C53.8,92.736316 60,85.936316 69.6,85.936316 C73.4,85.936316 77.5,87.036316 81.7,89.136316 C96.2,96.336316 107.9,114.036316 107.9,128.536316 C107.9,131.736316 107.3,134.636316 106.2,137.136316 L246.5,205.836316 C246.1,203.836316 245.9,201.936316 245.9,200.036316 C245.9,189.436316 252.1,182.636316 261.7,182.636316 C265.5,182.636316 269.6,183.736316 273.8,185.836316 C288.3,193.036316 300,210.736316 300,225.236316 C300,227.036316 299.8,228.736316 299.5,230.336316 C304.9,231.936316 312.4,233.636316 321.5,234.536316 C341.8,236.536316 375.1,230.436316 404.9,214.636316 C438.9,196.636316 452.2,179.336316 453.7,170.336316 C455.4,161.336316 441.6,125.136316 437.1,120.436316 Z" id="Path" fill="#F8EBCB"></path>
            <path d="M186.1,121.536316 C186.1,124.436316 183.7,125.636316 180.8,124.236316 C177.9,122.736316 175.5,119.236316 175.5,116.236316 C175.5,113.336316 177.9,112.136316 180.8,113.536316 C183.7,115.036316 186.1,118.536316 186.1,121.536316 Z" id="Path" fill="#000000" opacity="0.2"></path>
            <path d="M186.1,124.036316 L188.4,121.436316 C188.4,121.436316 171.7,110.536316 170.2,112.736316 C168.6,114.836316 186.1,124.036316 186.1,124.036316 L186.1,124.036316 Z" id="Path" fill="#F8EBCB"></path>
            <path d="M260.3,153.036316 C260.3,155.936316 257.9,157.136316 255,155.736316 C252.1,154.236316 249.7,150.736316 249.7,147.736316 C249.7,144.736316 252.1,143.636316 255,145.036316 C257.9,146.536316 260.3,150.136316 260.3,153.036316 Z" id="Path" fill="#000000" opacity="0.2"></path>
            <path d="M260.3,155.636316 L262.6,153.036316 C262.6,153.036316 245.9,142.136316 244.4,144.336316 C242.9,146.436316 260.3,155.636316 260.3,155.636316 L260.3,155.636316 Z" id="Path" fill="#F8EBCB"></path>
            <path d="M116.4,78.536316 L286.2,149.336316 C286.2,149.336316 269.7,89.336316 215,67.236316 C156.2,43.536316 116.4,78.536316 116.4,78.536316 L116.4,78.536316 Z" id="Path" fill="#2D3134"></path>
            <path d="M135,82.436316 L195.7,107.736316 L216.8,72.036316 C215.8,71.536316 214.7,71.136316 213.6,70.736316 C200.5,65.436316 187.3,62.736316 174.3,62.736316 C161.2,62.736316 150,65.536316 141.1,68.936316 L135,82.436316 Z M208.1,112.836316 L275,140.736316 L276.8,134.936316 C274.6,130.036316 271.6,124.336316 267.9,118.336316 C259.5,104.836316 245.6,87.436316 224.5,75.836316 L208.1,112.836316 L208.1,112.836316 Z" id="Shape" fill="#656565"></path>
            <path d="M252.5,11.836316 C254,9.43631601 206.4,9.43631601 193.9,11.036316 C181.4,12.736316 160.6,17.236316 141.7,27.636316 C125.7,36.436316 101.3,57.636316 114.1,60.236316 C126.9,62.836316 177.1,49.536316 178.9,48.436316 C180.7,47.336316 196.7,33.236316 214,25.036316 C231.3,16.836316 251.7,13.036316 252.5,11.836316 L252.5,11.836316 Z" id="Path" fill="#2D3134"></path>
            <path d="M244.8,12.436316 C245,12.336316 245.3,12.336316 245.5,12.236316 C240.9,11.936316 233.8,11.736316 224.6,11.736316 C218.8,11.736316 213.1,11.836316 208.2,12.036316 C189.4,16.836316 168.9,24.136316 156.8,29.936316 C141.3,37.336316 126.6,46.336316 119.3,58.736316 C136.4,58.336316 175.7,47.936316 178.1,46.836316 C178.4,46.636316 179.5,45.736316 180.7,44.836316 C186.3,40.336316 199.4,29.936316 213.4,23.436316 C224.6,18.136316 237.2,14.536316 244.8,12.436316 L244.8,12.436316 Z" id="Path" fill="#656565"></path>
            <path d="M364,69.236316 C372.6,69.836316 386.6,82.836316 392,87.136316 C397.4,91.536316 415.1,102.936316 403.2,116.836316 C391.3,130.736316 371.8,139.436316 353.8,144.136316 C335.7,148.836316 320.3,151.336316 309.6,142.336316 C298.9,133.336316 292,118.936316 290.2,115.536316 C288.4,112.136316 285.5,107.836316 294.6,100.436316 C305.1,91.836316 343.5,67.836316 364,69.236316 Z" id="Path" fill="#2D3134"></path>
            <path d="M364,70.936316 C372.2,71.436316 385.5,83.836316 390.7,88.036316 C395.9,92.236316 412.7,103.136316 401.3,116.336316 C390,129.536316 371.5,137.836316 354.2,142.336316 C337,146.736316 322.3,149.236316 312.2,140.636316 C302.1,132.036316 295.4,118.436316 293.7,115.136316 C292,111.836316 289.2,107.836316 297.9,100.836316 C307.9,92.536316 344.4,69.736316 364,70.936316 Z" id="Path" fill="#656565"></path>
            <path d="M405,105.336316 C403.7,97.236316 394.3,91.036316 390.7,88.136316 C385.5,83.936316 372.2,71.636316 364,71.036316 C344.5,69.736316 307.9,92.536316 297.9,100.736316 C293.1,104.636316 291.8,107.636316 291.9,110.036316 C328.680967,99.4432683 367.466954,97.8314722 405,105.336316 L405,105.336316 Z" id="Path" fill="#000000" opacity="0.2"></path>
            <path d="M333.9,205.336316 C333.9,205.336316 338.9,207.336316 342.6,206.436316 C346.4,205.536316 362.2,200.136316 362.2,200.136316 C362.2,200.136316 355.6,176.936316 348.3,170.936316 C341.1,164.936316 332.8,165.836316 331.1,166.836316 C329.5,167.836316 331.8,202.436316 333.9,205.336316 L333.9,205.336316 Z M436.8,162.536316 C436.8,162.536316 449.2,155.636316 449.2,152.736316 C449.2,149.836316 443.8,127.836316 439.9,123.236316 C436,118.636316 432.7,116.036316 431.2,116.936316 C429.6,117.736316 436.7,161.136316 436.8,162.536316 Z" id="Shape" fill="#CC291F"></path>
            <path d="M378.9,171.536316 C380.4,168.636316 415.4,151.336316 417.5,152.136316 C419.6,152.936316 420.5,167.636316 418,170.936316 C415.4,174.236316 390.3,188.236316 385.4,187.336316 C380.5,186.436316 377.6,174.136316 378.9,171.536316 L378.9,171.536316 Z" id="Path" fill="#2D3134"></path>
            <polygon id="Path" fill="#E5E5E5" points="385.1 169.936316 387.8 183.636316 413.6 170.336316 410.9 156.836316"></polygon>
            <path d="M362.2,200.036316 L365.1,205.036316 C365.1,205.036316 385,198.736316 403.5,189.036316 C422,179.436316 437.4,168.036316 437.4,168.036316 L436.8,162.436316 C436.8,162.436316 423.2,173.336316 402.6,183.836316 C383,193.936316 362.2,200.036316 362.2,200.036316 L362.2,200.036316 Z" id="Path" fill="#2D3134"></path>
            <path d="M55.4,64.536316 L116.4,78.536316 L286.2,149.336316 L330.5,180.136316 C330.5,180.136316 257.7,155.936316 193,125.836316 C128.3,95.736316 55.4,64.536316 55.4,64.536316 L55.4,64.536316 Z" id="Path" fill="#FFFFFF" opacity="0.3"></path>
            <path d="M275.3,145.036316 C265.8,157.736316 240.6,190.936316 237.7,192.136316 C236.9,192.236316 230.8,190.536316 193.3,172.736316 C192.3,171.236316 190.2,158.336316 191.6,142.236316 C193,124.736316 200.6,114.036316 200.7,113.936316 L200,113.436316 C199.9,113.536316 192.2,124.436316 190.7,142.236316 C189.5,156.536316 191,168.436316 192.2,172.236316 C187.4,169.936316 182.1,167.436316 176.2,164.636316 C146.3,150.236316 117.3,135.836316 116.3,135.136316 C114.4,133.836316 108.8,122.336316 109.5,105.236316 C110.2,88.636316 116.8,79.136316 116.8,79.036316 L116.1,78.536316 C116,78.636316 109.3,88.336316 108.6,105.236316 C107.9,122.536316 113.5,134.336316 115.8,135.936316 C117,136.836316 147.4,151.836316 176.3,165.736316 C228.7,190.936316 236.3,193.236316 237.8,193.236316 C238,193.236316 238.1,193.236316 238.2,193.136316 C241.9,191.536316 274.7,147.636316 276.1,145.736316 L275.3,145.036316 L275.3,145.036316 Z" id="Path" fill="#000000" opacity="0.2"></path>
            <path d="M288.5,111.336316 C279.3,90.136316 220.6,41.936316 176.5,49.036316 L176.3,47.736316 C203,43.436316 231.8,58.936316 246.5,68.536316 C266.6,81.636316 284.7,99.336316 289.7,110.836316 L288.5,111.336316 L288.5,111.336316 Z M369.1,72.136316 C329.6,45.136316 276.8,12.836316 249.8,12.236316 L249.8,10.836316 C277.1,11.436316 330.2,43.836316 369.9,70.936316 L369.1,72.136316 L369.1,72.136316 Z" id="Shape" fill="#2D3134"></path>
            <path d="M131,85.836316 L133.9,74.336316 C133.9,74.336316 128.8,71.736316 127,73.136316 C125.2,74.536316 121.3,85.936316 124.3,89.436316 C127.3,92.936316 128.2,93.036316 128.2,93.036316 L131,85.836316 L131,85.836316 Z" id="Path" fill="#F8EBCB"></path>
            <path d="M453.8,170.336316 C454.2,168.036316 453.6,164.136316 452.5,159.436316 C443.2,169.536316 426.7,183.636316 400.2,195.736316 C371.9,208.636316 353.6,213.736316 343.6,215.836316 C344.1,220.836316 343.9,229.236316 344.1,234.036316 C362.5,231.836316 384.5,225.536316 404.9,214.736316 C438.9,196.636316 452.2,179.436316 453.8,170.336316 L453.8,170.336316 Z" id="Path" fill="#000000" opacity="0.29"></path>
            <path d="M336.6,173.336316 C334.3,165.236316 316.1,160.536316 301.3,146.636316 C287.8,134.036316 271,87.736316 220.4,66.436316 C168.9,44.836316 134.6,66.136316 107.8,69.136316 C89.5,71.136316 61.5,62.836316 40.9,56.336316 C36.4,63.536316 34,70.736316 34,77.436316 C34,85.436316 35.6,93.536316 46.4,102.336316 C48.2,103.836316 51,105.736316 54.3,107.836316 C54.1,106.336316 53.9,104.836316 53.9,103.336316 C53.9,92.736316 60.1,85.936316 69.7,85.936316 C73.5,85.936316 77.6,87.036316 81.8,89.136316 C96.3,96.336316 108,114.036316 108,128.536316 C108,131.736316 107.4,134.636316 106.3,137.136316 L246.6,205.836316 C246.2,203.836316 246,201.936316 246,200.036316 C246,189.436316 252.2,182.636316 261.8,182.636316 C265.6,182.636316 269.7,183.736316 273.9,185.836316 C288.4,193.036316 300.1,210.736316 300.1,225.236316 C300.1,227.036316 299.9,228.736316 299.6,230.336316 C305,231.936316 312.5,233.636316 321.6,234.536316 C328,235.136316 335.6,235.036316 344,234.036316 C343.2,194.236316 338.3,179.136316 336.6,173.336316 Z" id="Path" fill="#000000" opacity="0.11"></path>
            <path d="M52.2,63.636316 C52.2,63.636316 51.7,54.836316 54,51.236316 C56.3,47.636316 54.8,42.336316 52.1,42.936316 C48.9,43.636316 39.5,56.436316 39,59.336316 C38.7,62.336316 52.2,63.636316 52.2,63.636316 Z" id="Path" fill="#E5E5E5"></path>
            <path d="M53.5,49.236316 C53.5,51.736316 51.5,54.836316 49,56.036316 C46.5,57.336316 44.5,56.236316 44.5,53.736316 C44.5,51.236316 46.5,48.136316 49,46.936316 C51.5,45.736316 53.5,46.736316 53.5,49.236316 Z" id="Path" fill="#000000" opacity="0.2"></path>
            <path d="M50.5,50.736316 C50.5,52.036316 49.4,53.736316 48.1,54.336316 C46.8,55.036316 45.7,54.436316 45.7,53.136316 C45.7,51.836316 46.8,50.136316 48.1,49.536316 C49.4,48.836316 50.5,49.336316 50.5,50.736316 Z M50.8,57.036316 C50.8,58.336316 49.7,60.036316 48.4,60.636316 C47.1,61.236316 46,60.736316 46,59.436316 C46,58.136316 47.1,56.436316 48.4,55.836316 C49.7,55.236316 50.8,55.736316 50.8,57.036316 Z" id="Shape" fill="#FFFFFF" opacity="0.4"></path>
            <path d="M334.5,185.636316 L335.6,191.936316 L340.7,192.536316 L355.8,187.436316 L353.3,181.536316 L340.1,186.436316 L334.5,185.636316 Z M435,140.536316 L444.2,134.236316 L446.1,139.536316 L436.4,147.036316 L435,140.536316 Z" id="Shape" fill="#FFFFFF" opacity="0.8"></path>
        </g>
    </g>
</svg>