<svg width="32" height="35" viewBox="0 0 32 35" fill="none" xmlns="http://www.w3.org/2000/svg">
<path fill-rule="evenodd" clip-rule="evenodd" d="M24.8758 12.1724C24.5233 12.4498 24.0656 12.6709 23.5134 12.8507C23.5377 13.1011 23.5501 13.3547 23.5501 13.6111C23.5501 17.9067 20.0679 21.3889 15.7724 21.3889C11.4768 21.3889 7.99458 17.9067 7.99458 13.6111C7.99458 13.3547 8.00703 13.1011 8.03133 12.8507C7.47911 12.6709 7.02129 12.4498 6.66896 12.1724C6.21153 11.8126 5.90576 11.3319 5.86969 10.7551C5.83625 10.2189 6.04771 9.76442 6.26023 9.44349C6.47733 9.11585 6.75422 8.83818 6.99835 8.62517C7.13426 8.50646 7.2694 8.3999 7.39346 8.30774C7.35661 8.10814 7.31587 7.86722 7.27543 7.5879C7.14807 6.70843 7.02236 5.44629 7.02236 3.88889C7.02236 3.58392 7.15254 3.35615 7.21321 3.2594C7.28904 3.13864 7.37878 3.03437 7.45928 2.9506C7.62232 2.78077 7.83183 2.60797 8.06225 2.44094C8.52892 2.10265 9.17155 1.72311 9.93348 1.36733C11.453 0.657913 13.5396 0 15.7724 0C18.0052 0 20.0917 0.657913 21.6111 1.36733C22.3732 1.72311 23.0158 2.10265 23.4825 2.44094C23.7129 2.60797 23.9224 2.78077 24.0854 2.9506C24.1659 3.03437 24.2557 3.13864 24.3314 3.2594C24.3922 3.35615 24.5224 3.58392 24.5224 3.88889C24.5224 5.44649 24.3967 6.70862 24.2693 7.588C24.2287 7.86732 24.1881 8.10814 24.1513 8.30783C24.2753 8.3999 24.4105 8.50646 24.5464 8.62517C24.7905 8.83818 25.0673 9.11585 25.2844 9.44349C25.497 9.76442 25.7085 10.2189 25.6749 10.7551C25.639 11.3319 25.3331 11.8126 24.8758 12.1724ZM8.96855 4.19844C8.98372 5.50861 9.09251 6.56814 9.19985 7.30907C9.22503 7.48329 9.25021 7.63982 9.27403 7.77778H22.2707C22.2945 7.63992 22.3197 7.48339 22.3449 7.30917C22.4522 6.56833 22.561 5.50881 22.5762 4.19844C22.5173 4.14818 22.4398 4.08664 22.3412 4.01518C21.9906 3.76106 21.4581 3.44182 20.7885 3.12919C19.4448 2.50181 17.6426 1.94444 15.7724 1.94444C13.9021 1.94444 12.0999 2.50181 10.7562 3.12919C10.0866 3.44182 9.55412 3.76106 9.20354 4.01518C9.10496 4.08664 9.02737 4.14818 8.96855 4.19844ZM8.76079 9.72222L8.75729 9.72455C8.62118 9.81585 8.44569 9.94282 8.27682 10.0901C8.10328 10.2417 7.9661 10.3894 7.88122 10.5174C7.85575 10.556 7.83922 10.586 7.82872 10.6082C7.83961 10.6183 7.85361 10.6304 7.8714 10.6444C8.01626 10.7584 8.32961 10.9273 8.94026 11.093C9.06062 11.1256 9.18993 11.1574 9.32837 11.1882L9.33664 11.19C9.82489 11.2982 10.4254 11.3937 11.1582 11.4702C12.1958 11.5785 13.5012 11.6493 15.1322 11.6638C15.3402 11.6657 15.5536 11.6667 15.7724 11.6667C18.9093 11.6667 20.9385 11.4713 22.208 11.19L22.2163 11.1882C22.3548 11.1574 22.484 11.1256 22.6045 11.093C23.215 10.9273 23.5285 10.7584 23.6733 10.6444C23.6911 10.6304 23.7051 10.6183 23.716 10.6082C23.7054 10.586 23.689 10.556 23.6634 10.5174C23.5786 10.3894 23.4414 10.2417 23.2678 10.0901C23.099 9.94282 22.9235 9.81585 22.7874 9.72455L22.7839 9.72222H8.76079ZM15.5073 13.6111C18.0767 13.6111 20.0668 13.4752 21.5938 13.2375C21.6016 13.361 21.6056 13.4855 21.6056 13.6111C21.6056 16.8328 18.9939 19.4444 15.7723 19.4444C12.5506 19.4444 9.93893 16.8328 9.93893 13.6111C9.93893 13.5082 9.94155 13.4061 9.9468 13.3046C11.3687 13.5008 13.1919 13.6111 15.5073 13.6111ZM8.07051 31.9641C8.02044 32.3207 7.99458 32.6851 7.99458 33.0556V34.0278C7.99458 34.5647 7.55932 35 7.02236 35C6.6641 35 6.35114 34.8062 6.18246 34.5178C5.54983 34.8599 4.79023 34.9702 4.04065 34.7693L2.16251 34.266C0.606558 33.8491 -0.31681 32.2498 0.100109 30.6938L0.85499 27.8765C1.27191 26.3206 2.87126 25.3973 4.42721 25.8142L6.30535 26.3175C6.95907 26.4926 7.50118 26.8765 7.87908 27.3783C9.64435 24.9283 12.5221 23.3333 15.7724 23.3333C19.0215 23.3333 21.8983 24.9272 23.6638 27.3757C24.0416 26.8756 24.5827 26.493 25.235 26.3182L27.1132 25.8149C28.6692 25.398 30.2685 26.3214 30.6854 27.8773L31.4403 30.6946C31.8572 32.2506 30.9338 33.8499 29.3778 34.2667L27.4997 34.7701C26.7513 34.9705 25.9928 34.8611 25.3608 34.5202C25.1918 34.8073 24.8797 35 24.5224 35C23.9854 35 23.5501 34.5647 23.5501 34.0278V33.0556C23.5501 32.6851 23.5242 32.3207 23.4741 31.9641L18.4148 33.3198C17.9495 34.3124 16.9412 35 15.7724 35C14.6036 35 13.5953 34.3124 13.13 33.3197L8.07051 31.9641ZM12.9722 31.2644C13.2352 30.3638 13.9209 29.6433 14.8001 29.3326V25.338C11.9801 25.6896 9.62889 27.551 8.58083 30.0877L12.9722 31.2644ZM22.9639 30.0877C21.9158 27.551 19.5646 25.6896 16.7446 25.338V29.3326C17.6238 29.6433 18.3096 30.3638 18.5725 31.2644L22.9639 30.0877ZM25.0508 29.3871C24.9118 28.8685 25.2196 28.3353 25.7383 28.1964L27.6165 27.6932C28.1351 27.5541 28.6682 27.8619 28.8072 28.3806L29.5621 31.1978C29.7011 31.7165 29.3933 32.2496 28.8746 32.3886L26.9965 32.8918C26.4778 33.0309 25.9446 32.7231 25.8057 32.2044L25.0508 29.3871ZM3.92389 27.6924C3.4053 27.5534 2.87214 27.8612 2.73321 28.3798L1.9783 31.1971C1.83933 31.7157 2.14711 32.2489 2.66573 32.3878L4.54397 32.8911C5.06255 33.0301 5.59572 32.7223 5.73465 32.2036L6.48958 29.3863C6.62851 28.8677 6.32071 28.3345 5.80212 28.1956L3.92389 27.6924ZM16.7446 32.0833C16.7446 32.6203 16.3093 33.0556 15.7724 33.0556C15.2354 33.0556 14.8001 32.6203 14.8001 32.0833C14.8001 31.5464 15.2354 31.1111 15.7724 31.1111C16.3093 31.1111 16.7446 31.5464 16.7446 32.0833Z" fill="white"/>
</svg>
