<svg width="19" height="13" viewBox="0 0 19 13" fill="none" xmlns="http://www.w3.org/2000/svg">
<path d="M16.5301 11.8182C16.7984 11.4702 16.985 11.0663 17.0761 10.6364H18.3182V7.01174C18.3182 6.59574 18.2402 6.19037 18.0853 5.8051L16.7818 2.54447C16.4834 1.79195 15.9653 1.14675 15.2949 0.692905C14.6246 0.23906 13.8331 -0.00238655 13.0236 1.77835e-05H8.56344C7.70313 0.00126824 6.87841 0.343581 6.27007 0.951916C5.66174 1.56025 5.31943 2.38497 5.31817 3.24529C5.31817 4.19428 4.67527 5.01801 3.75581 5.24728L3.04909 5.42456C2.34655 5.59934 1.72277 6.00434 1.27724 6.57496C0.83171 7.14558 0.590087 7.84896 0.590908 8.57292V10.6364H3.01481C3.10463 11.076 3.29963 11.4731 3.56081 11.8182H0V13H18.9091V11.8182H16.5301ZM8.80335 10.6364H11.2863C11.3762 11.076 11.5712 11.4731 11.8323 11.8182H8.25735C8.51853 11.4731 8.71472 11.076 8.80335 10.6364ZM12.4091 10.0455C12.4091 9.0681 13.2044 8.27273 14.1818 8.27273C15.1592 8.27273 15.9545 9.0681 15.9545 10.0455C15.9545 11.0228 15.1592 11.8182 14.1818 11.8182C13.2044 11.8182 12.4091 11.0228 12.4091 10.0455ZM1.77272 8.57292C1.77272 7.62392 2.41563 6.80019 3.33509 6.57092L4.04181 6.39365C4.74435 6.21886 5.36813 5.81386 5.81366 5.24324C6.25919 4.67262 6.50081 3.96924 6.49999 3.24529C6.49999 2.1072 7.42535 1.18183 8.56344 1.18183H13.0224C14.2019 1.18183 15.2454 1.88974 15.6827 2.98292L16.9874 6.24356C17.0867 6.48937 17.1363 6.74701 17.1363 7.01174V9.45455H17.0772L17.069 9.425C17.0326 9.25607 16.9812 9.09075 16.9153 8.93101C16.8917 8.87428 16.861 8.82228 16.8338 8.76673C16.7839 8.65916 16.727 8.55494 16.6636 8.45473C16.6258 8.39564 16.5821 8.34128 16.5407 8.28573C16.4756 8.19802 16.4062 8.11362 16.3327 8.03283C16.2831 7.97964 16.2311 7.93119 16.1779 7.88155C15.963 7.68468 15.7206 7.52025 15.4582 7.39346C15.3955 7.36274 15.3341 7.33083 15.2691 7.30483C15.1541 7.26092 15.0364 7.22422 14.9169 7.19492C14.859 7.17955 14.8034 7.15946 14.7443 7.14764C14.5612 7.11219 14.3744 7.09092 14.1818 7.09092C13.9892 7.09092 13.8024 7.11219 13.6204 7.14764C13.5613 7.15946 13.5058 7.17955 13.4479 7.19492C13.3281 7.2235 13.2105 7.26022 13.0957 7.30483C13.0307 7.33083 12.9693 7.36274 12.9066 7.39346C12.8065 7.44086 12.709 7.49373 12.6147 7.55183C12.4625 7.6487 12.3193 7.75905 12.1869 7.88155C12.1337 7.93119 12.0817 7.97964 12.0321 8.03283C11.9579 8.11307 11.8885 8.19751 11.8241 8.28573C11.7805 8.33969 11.7394 8.39569 11.7012 8.45355C11.6384 8.55417 11.5816 8.65834 11.531 8.76555C11.5038 8.8211 11.4731 8.8731 11.4494 8.92982C11.3837 9.08962 11.3323 9.25494 11.2958 9.42382C11.2934 9.43446 11.2887 9.44273 11.2875 9.45337L8.80453 9.45455L8.79508 9.42382C8.75858 9.25494 8.70716 9.08962 8.64144 8.92982C8.61781 8.8731 8.58708 8.8211 8.5599 8.76555C8.50998 8.65798 8.45313 8.55376 8.38972 8.45355C8.3519 8.39446 8.30817 8.3401 8.26681 8.28455C8.15994 8.13783 8.03837 8.0024 7.90399 7.88037C7.82493 7.80704 7.74167 7.73838 7.65463 7.67474C7.59672 7.63219 7.53881 7.58964 7.47735 7.55064C7.38291 7.49275 7.28547 7.43989 7.18544 7.39228C7.12281 7.36274 7.06135 7.33083 6.99635 7.30483C6.88154 7.26039 6.76388 7.22367 6.64417 7.19492C6.58626 7.17955 6.53072 7.15946 6.47163 7.14764C6.28845 7.11219 6.10172 7.09092 5.90908 7.09092C5.71645 7.09092 5.52972 7.11219 5.34772 7.14764C5.28863 7.15946 5.23308 7.17955 5.17518 7.19492C5.05503 7.2235 4.93697 7.26022 4.82181 7.30483C4.75681 7.33083 4.69536 7.36274 4.63272 7.39228C4.5327 7.43989 4.43526 7.49275 4.34081 7.55064C4.27936 7.58964 4.22145 7.63219 4.16354 7.67474C4.01755 7.7803 3.88218 7.89984 3.75936 8.03164C3.6849 8.11083 3.61754 8.19592 3.55136 8.28337C3.50881 8.3401 3.46627 8.39446 3.42845 8.45355C3.36573 8.55417 3.3089 8.65834 3.25827 8.76555C3.23109 8.8211 3.20036 8.8731 3.17672 8.92982C3.111 9.08962 3.05959 9.25494 3.02309 9.42382C3.02072 9.43446 3.016 9.44273 3.01481 9.45337L1.77272 9.45455V8.57292ZM4.13636 10.0455C4.13636 9.0681 4.93172 8.27273 5.90908 8.27273C6.88645 8.27273 7.68181 9.0681 7.68181 10.0455C7.68181 11.0228 6.88645 11.8182 5.90908 11.8182C4.93172 11.8182 4.13636 11.0228 4.13636 10.0455Z" fill="white"/>
</svg>
