<svg width="26" height="21" viewBox="0 0 26 21" fill="none" xmlns="http://www.w3.org/2000/svg">
<path d="M4.58141 13.2795C4.40998 13.7431 4.21924 14.211 4.38246 14.5505C4.67654 15.1633 5.98181 15.1411 6.4 15.6674C6.81819 16.1938 6.5101 17.4696 7.03694 17.8922C7.56378 18.3147 8.72709 17.727 9.3365 18.023C9.93674 18.3128 10.2057 19.5973 10.8711 19.7494C11.5153 19.8942 12.3102 18.8604 12.9988 18.8604C13.6874 18.8604 14.4823 19.8962 15.1264 19.7494C15.7919 19.5973 16.0608 18.3137 16.6611 18.023C17.271 17.727 18.4367 18.3128 18.9606 17.8922C19.4846 17.4715 19.177 16.1967 19.5976 15.6674C20.0182 15.1382 21.321 15.1633 21.6151 14.5505C21.7784 14.2125 21.5876 13.7431 21.4162 13.2795M4.58141 7.48475C4.40998 7.02117 4.21924 6.55324 4.38246 6.21376C4.67654 5.60096 5.98181 5.62318 6.4 5.09682C6.81819 4.57046 6.51059 3.29465 7.03694 2.87211C7.5633 2.44958 8.72709 3.03726 9.3365 2.74125C9.93674 2.45151 10.2057 1.167 10.8711 1.01489C11.5153 0.869054 12.3102 1.90245 12.9988 1.90245C13.6874 1.90245 14.4823 0.869054 15.1264 1.01392C15.7919 1.16604 16.0608 2.44958 16.6611 2.74028C17.271 3.0363 18.4367 2.45054 18.9606 2.87115C19.4846 3.29175 19.177 4.5666 19.5976 5.09585C20.0182 5.62511 21.321 5.6 21.6151 6.2128C21.7784 6.55082 21.5876 7.0202 21.4162 7.48378M7.36483 13.2795C7.89432 14.3104 8.69777 15.1753 9.68686 15.7792C10.676 16.3831 11.8124 16.7026 12.9713 16.7026C14.1301 16.7026 15.2666 16.3831 16.2557 15.7792C17.2448 15.1753 18.0482 14.3104 18.5777 13.2795M7.33682 7.48475C7.86088 6.43936 8.66543 5.56037 9.66049 4.9461C10.6555 4.33184 11.8019 4.00651 12.9713 4.00651C14.1407 4.00651 15.287 4.33184 16.2821 4.9461C17.2771 5.56037 18.0817 6.43936 18.6057 7.48475" stroke="white" stroke-linecap="round" stroke-linejoin="round"/>
<path d="M25 13.2808H1L2.64765 10.3545L1 7.48315H25L23.3524 10.3545L25 13.2808Z" stroke="white" stroke-linecap="round" stroke-linejoin="round"/>
<path d="M7.5625 10.9769V10.0174C7.5625 9.39446 7.94882 9.16267 8.44524 9.16267C8.94165 9.16267 9.33135 9.39446 9.33135 10.0174V10.9769C9.33135 11.5999 8.94214 11.8316 8.44524 11.8316C7.94833 11.8316 7.5625 11.5999 7.5625 10.9769ZM8.76974 10.0174C8.76974 9.76725 8.64709 9.65522 8.44572 9.65522C8.24435 9.65522 8.12508 9.76725 8.12508 10.0174V10.9769C8.12508 11.2266 8.24387 11.3391 8.44572 11.3391C8.64757 11.3391 8.76974 11.2266 8.76974 10.9769V10.0174ZM9.96153 9.33651C9.96153 9.22062 10.0842 9.16267 10.2068 9.16267H11.4551C11.5739 9.16267 11.6246 9.28919 11.6246 9.40412C11.6246 9.53836 11.5633 9.65426 11.4551 9.65426H10.5236V10.2661H11.0688C11.1765 10.2661 11.2378 10.3709 11.2378 10.4868C11.2378 10.5834 11.1895 10.7007 11.0688 10.7007H10.5236V11.6375C10.5236 11.7534 10.3831 11.8114 10.2426 11.8114C10.1021 11.8114 9.96153 11.7534 9.96153 11.6375V9.33651ZM12.0872 9.33651C12.0872 9.22062 12.2094 9.16267 12.3321 9.16267H13.5823C13.7011 9.16267 13.7513 9.28919 13.7513 9.40412C13.7513 9.53836 13.6905 9.65426 13.5823 9.65426H12.6493V10.2661H13.1936C13.3017 10.2661 13.3631 10.3709 13.3631 10.4868C13.3631 10.5834 13.3124 10.7007 13.1936 10.7007H12.6493V11.6375C12.6493 11.7534 12.5088 11.8114 12.3683 11.8114C12.2278 11.8114 12.0872 11.7534 12.0872 11.6375V9.33651ZM14.7746 10.2671H15.3149C15.4231 10.2671 15.4844 10.3718 15.4844 10.4877C15.4844 10.5843 15.4337 10.7017 15.3149 10.7017H14.7746V11.3174H15.7404C15.8485 11.3174 15.9099 11.4333 15.9099 11.567C15.9099 11.6829 15.8616 11.8085 15.7404 11.8085H14.4578C14.3351 11.8085 14.2125 11.7505 14.2125 11.6346V9.33651C14.2125 9.22062 14.3351 9.16267 14.4578 9.16267H15.7399C15.8592 9.16267 15.9094 9.28919 15.9094 9.40412C15.9094 9.53836 15.8481 9.65426 15.7399 9.65426H14.7741L14.7746 10.2671ZM16.4246 9.33265C16.4244 9.31 16.4287 9.28754 16.4373 9.2666C16.4459 9.24567 16.4587 9.22669 16.4748 9.21082C16.491 9.19494 16.5102 9.18249 16.5313 9.17422C16.5523 9.16594 16.5749 9.16202 16.5975 9.16267H17.3431C17.8366 9.16267 18.2292 9.34713 18.2292 9.9353C18.2292 10.3414 18.0457 10.5732 17.7946 10.6708L18.2341 11.4709C18.2462 11.4905 18.2524 11.5131 18.2519 11.5361C18.2519 11.6776 18.0646 11.8297 17.8989 11.8297C17.862 11.8312 17.8254 11.8221 17.7934 11.8035C17.7615 11.7848 17.7356 11.7574 17.7188 11.7244L17.2253 10.7611H16.9877V11.6375C16.9877 11.7534 16.8472 11.8114 16.7066 11.8114C16.5661 11.8114 16.4256 11.7534 16.4256 11.6375L16.4246 9.33265ZM16.9867 9.65764V10.3308H17.3431C17.545 10.3308 17.6676 10.2477 17.6676 9.99277C17.6676 9.7378 17.545 9.65474 17.3431 9.65474L16.9867 9.65764Z" fill="white"/>
<path d="M20.6044 10.7444C20.8044 10.7444 20.9665 10.5822 20.9665 10.3822C20.9665 10.1822 20.8044 10.02 20.6044 10.02C20.4043 10.02 20.2422 10.1822 20.2422 10.3822C20.2422 10.5822 20.4043 10.7444 20.6044 10.7444Z" fill="white"/>
</svg>
