<svg width="26" height="22" viewBox="0 0 26 22" fill="none" xmlns="http://www.w3.org/2000/svg">
<path d="M24.0528 12.2408C23.755 12.2402 23.4613 12.3104 23.1959 12.4457L17.3314 15.4029H16.542C16.7018 15.1195 16.7856 14.7997 16.7853 14.4744C16.7853 13.4235 15.9253 12.5685 14.8681 12.5685H8.77434C8.70006 12.5685 8.62681 12.5854 8.56011 12.618L4.39809 14.6483V14.5511C4.39809 13.8738 3.82976 13.3015 3.15705 13.3015H1.20317C0.539744 13.3015 0 13.8621 0 14.5511V20.8034C0 21.4744 0.528504 22 1.20317 22H3.157C3.84134 22 4.39809 21.4632 4.39809 20.8034V20.7294H9.01854C9.04771 20.7294 9.07679 20.7268 9.10552 20.7217L18.8382 18.9616C18.8846 18.9531 18.9296 18.9381 18.9717 18.9167L24.9405 15.8981C25.8877 15.4177 26.2682 14.2574 25.7886 13.3118C25.4536 12.6512 24.7885 12.2408 24.0528 12.2408ZM3.42074 20.8034C3.42074 20.9388 3.28386 21.0226 3.15705 21.0226H1.20317C1.066 21.0226 0.977354 20.9366 0.977354 20.8034V14.5511C0.977354 14.4223 1.07011 14.2789 1.20317 14.2789H3.157C3.29012 14.2789 3.42069 14.4137 3.42069 14.5511L3.42074 20.8034ZM24.4989 15.0262L18.5942 18.0124L8.9747 19.7521H4.39809V15.7357L8.88718 13.5459H14.8682C15.3864 13.5459 15.808 13.9624 15.808 14.4744C15.808 14.9864 15.3864 15.4029 14.8682 15.4029H9.43147C9.16157 15.4029 8.94279 15.6217 8.94279 15.8915C8.94279 16.1614 9.16157 16.3802 9.43147 16.3802H17.4477C17.5241 16.3802 17.5994 16.3623 17.6677 16.3279L23.637 13.3179C23.7657 13.2521 23.9083 13.2179 24.0528 13.2181C24.4128 13.2181 24.752 13.4284 24.917 13.7538C25.1528 14.2188 24.965 14.7898 24.4989 15.0262ZM7.73253 5.30826C7.73253 8.23524 10.1138 10.6165 13.0408 10.6165C15.9678 10.6165 18.349 8.23519 18.349 5.30826C18.349 2.38127 15.9677 0 13.0408 0C10.1139 0 7.73253 2.38123 7.73253 5.30826ZM17.3716 5.30826C17.3716 7.69627 15.4289 9.63911 13.0408 9.63911C10.6527 9.63911 8.70989 7.69627 8.70989 5.30826C8.70989 2.92019 10.6527 0.977354 13.0408 0.977354C15.4289 0.977354 17.3716 2.92019 17.3716 5.30826Z" fill="white"/>
<path d="M12.5565 1.94604V2.77411C11.7029 2.92628 11.1959 3.48401 11.1959 4.21077C11.1959 4.99661 11.7705 5.40226 12.6579 5.72337C13.2832 5.95158 13.579 6.19656 13.579 6.57685C13.579 6.9825 13.2156 7.24448 12.6832 7.24448C12.1677 7.24448 11.6945 7.06699 11.3649 6.87269L11.1367 7.66704C11.441 7.86984 11.9733 8.02196 12.5057 8.03887V8.85858H13.1987V7.98815C14.1283 7.83607 14.6269 7.20221 14.6269 6.48395C14.6269 5.73188 14.2043 5.2755 13.2579 4.92057C12.5395 4.63333 12.2354 4.43893 12.2354 4.09251C12.2354 3.80517 12.4466 3.50092 13.0382 3.50092C13.6127 3.50092 13.9846 3.69531 14.1874 3.78831L14.4156 3.01087C14.1452 2.87556 13.7818 2.74889 13.2494 2.73194V1.94604H12.5565Z" fill="white"/>
</svg>
