<svg width="26" height="27" viewBox="0 0 26 27" fill="none" xmlns="http://www.w3.org/2000/svg">
<path d="M21.5951 12.9729L19.7951 4.21714C19.5787 3.03441 18.9547 1.9649 18.0316 1.19447C17.1085 0.424044 15.9447 0.00140284 14.7423 0H10.8851C9.68645 0.00028592 8.52551 0.41928 7.60292 1.18458C6.68033 1.94989 6.05404 3.01343 5.83229 4.19143L4.03229 12.9729C3.02443 13.1958 2.10696 13.7168 1.39922 14.4682C0.69148 15.2195 0.226219 16.1665 0.0639497 17.1859C-0.0983192 18.2053 0.0499139 19.2499 0.48937 20.1839C0.928825 21.1179 1.63917 21.898 2.528 22.4229V23.7857C2.528 24.6382 2.86665 25.4558 3.46944 26.0586C4.07224 26.6614 4.88981 27 5.74229 27C6.59477 27 7.41233 26.6614 8.01513 26.0586C8.61793 25.4558 8.95657 24.6382 8.95657 23.7857V23.1429H16.6709V23.7857C16.6709 24.6382 17.0095 25.4558 17.6123 26.0586C18.2151 26.6614 19.0327 27 19.8851 27C20.7376 27 21.5552 26.6614 22.158 26.0586C22.7608 25.4558 23.0994 24.6382 23.0994 23.7857V22.4229C23.9883 21.898 24.6986 21.1179 25.1381 20.1839C25.5775 19.2499 25.7257 18.2053 25.5635 17.1859C25.4012 16.1665 24.936 15.2195 24.2282 14.4682C23.5205 13.7168 22.603 13.1958 21.5951 12.9729ZM8.36514 4.68C8.47316 4.08972 8.78421 3.5558 9.24443 3.17072C9.70466 2.78563 10.2851 2.57363 10.8851 2.57143H14.7423C15.3568 2.56302 15.9539 2.77494 16.4256 3.16881C16.8973 3.56268 17.2124 4.11246 17.3137 4.71857L18.9466 12.8571H6.68086L8.36514 4.68ZM6.38514 23.7857C6.38514 23.9562 6.31742 24.1197 6.19686 24.2403C6.0763 24.3608 5.91278 24.4286 5.74229 24.4286C5.57179 24.4286 5.40828 24.3608 5.28772 24.2403C5.16716 24.1197 5.09943 23.9562 5.09943 23.7857V23.1429H6.38514V23.7857ZM20.528 23.7857C20.528 23.9562 20.4603 24.1197 20.3397 24.2403C20.2192 24.3608 20.0556 24.4286 19.8851 24.4286C19.7146 24.4286 19.5511 24.3608 19.4306 24.2403C19.31 24.1197 19.2423 23.9562 19.2423 23.7857V23.1429H20.528V23.7857ZM20.528 20.5714H5.09943C4.41744 20.5714 3.76339 20.3005 3.28116 19.8183C2.79892 19.336 2.528 18.682 2.528 18C2.528 17.318 2.79892 16.664 3.28116 16.1817C3.76339 15.6995 4.41744 15.4286 5.09943 15.4286H20.528C21.21 15.4286 21.864 15.6995 22.3463 16.1817C22.8285 16.664 23.0994 17.318 23.0994 18C23.0994 18.682 22.8285 19.336 22.3463 19.8183C21.864 20.3005 21.21 20.5714 20.528 20.5714Z" fill="white"/>
<path d="M6.38337 19.2858C7.09345 19.2858 7.66908 18.7102 7.66908 18.0001C7.66908 17.29 7.09345 16.7144 6.38337 16.7144C5.67329 16.7144 5.09766 17.29 5.09766 18.0001C5.09766 18.7102 5.67329 19.2858 6.38337 19.2858Z" fill="white"/>
<path d="M19.2427 19.2858C19.9528 19.2858 20.5285 18.7102 20.5285 18.0001C20.5285 17.29 19.9528 16.7144 19.2427 16.7144C18.5327 16.7144 17.957 17.29 17.957 18.0001C17.957 18.7102 18.5327 19.2858 19.2427 19.2858Z" fill="white"/>
<path d="M15.3856 16.7144H10.2427C9.90175 16.7144 9.57473 16.8498 9.33361 17.0909C9.09249 17.332 8.95703 17.6591 8.95703 18.0001C8.95703 18.3411 9.09249 18.6681 9.33361 18.9092C9.57473 19.1503 9.90175 19.2858 10.2427 19.2858H15.3856C15.7266 19.2858 16.0536 19.1503 16.2947 18.9092C16.5359 18.6681 16.6713 18.3411 16.6713 18.0001C16.6713 17.6591 16.5359 17.332 16.2947 17.0909C16.0536 16.8498 15.7266 16.7144 15.3856 16.7144Z" fill="white"/>
</svg>
