<svg width="21" height="20" viewBox="0 0 21 20" fill="none" xmlns="http://www.w3.org/2000/svg">
<path d="M19.961 16.2453C19.93 16.3005 19.8848 16.3464 19.8302 16.3785C19.7756 16.4105 19.7135 16.4274 19.6502 16.4275H15.7204V15.713H19.025L10.0044 1.0336L0.998147 15.713H4.28842V16.4275H0.35867C0.295367 16.4274 0.233229 16.4105 0.178617 16.3785C0.124005 16.3464 0.0788811 16.3005 0.0478625 16.2453C0.0165073 16.191 0 16.1294 0 16.0667C0 16.004 0.0165073 15.9424 0.0478625 15.8881L9.69361 0.169057C9.72565 0.117359 9.77036 0.0746973 9.8235 0.0451126C9.87664 0.0155279 9.93645 0 9.99727 0C10.0581 0 10.1179 0.0155279 10.171 0.0451126C10.2242 0.0746973 10.2689 0.117359 10.3009 0.169057L19.9467 15.8881C19.9802 15.9411 19.9992 16.002 20.0017 16.0648C20.0042 16.1275 19.9902 16.1898 19.961 16.2453ZM14.2914 15.713H13.0339C12.9594 15.7126 12.8867 15.7354 12.8259 15.7783C12.765 15.8212 12.7191 15.8821 12.6945 15.9524C12.6616 16.0461 12.6235 16.138 12.5802 16.2274C12.5484 16.2944 12.5382 16.3695 12.551 16.4425C12.5638 16.5154 12.599 16.5826 12.6516 16.6347L13.5412 17.5243L12.5302 18.5353L11.6406 17.6457C11.5885 17.5931 11.5213 17.5579 11.4484 17.5451C11.3754 17.5323 11.3003 17.5425 11.2334 17.5743C11.1439 17.6176 11.0521 17.6557 10.9583 17.6886C10.888 17.7132 10.8271 17.7591 10.7842 17.8199C10.7413 17.8808 10.7185 17.9535 10.7189 18.028V19.2855H9.28992V18.028C9.29037 17.9535 9.26754 17.8808 9.22462 17.8199C9.18171 17.7591 9.12085 17.7132 9.05056 17.6886C8.95678 17.6557 8.86494 17.6176 8.77548 17.5743C8.70856 17.5425 8.63342 17.5323 8.56046 17.5451C8.48749 17.5579 8.42031 17.5931 8.36821 17.6457L7.47866 18.5353L6.46764 17.5243L7.3572 16.6347C7.40986 16.5826 7.44503 16.5154 7.45783 16.4425C7.47063 16.3695 7.46043 16.2944 7.42865 16.2274C7.38537 16.138 7.3472 16.0461 7.31433 15.9524C7.28976 15.8821 7.24384 15.8212 7.18299 15.7783C7.12214 15.7354 7.0494 15.7126 6.97494 15.713H5.71742V14.9771H5.00292V16.0703C5.00292 16.165 5.04056 16.2559 5.10755 16.3229C5.17455 16.3899 5.26542 16.4275 5.36017 16.4275H6.55338L5.71742 17.2706C5.68393 17.3038 5.65736 17.3433 5.63922 17.3869C5.62108 17.4304 5.61174 17.4771 5.61174 17.5243C5.61174 17.5714 5.62108 17.6181 5.63922 17.6616C5.65736 17.7052 5.68393 17.7447 5.71742 17.7779L7.22501 19.2855C7.25822 19.319 7.29774 19.3456 7.34127 19.3637C7.38481 19.3818 7.4315 19.3912 7.47866 19.3912C7.52582 19.3912 7.57252 19.3818 7.61605 19.3637C7.65959 19.3456 7.6991 19.319 7.73231 19.2855L8.57542 18.4495V19.6427C8.57542 19.7375 8.61306 19.8284 8.68005 19.8954C8.74705 19.9624 8.83792 20 8.93267 20H11.0762C11.1709 20 11.2618 19.9624 11.3288 19.8954C11.3958 19.8284 11.4334 19.7375 11.4334 19.6427V18.4495L12.2765 19.2855C12.3097 19.319 12.3493 19.3456 12.3928 19.3637C12.4363 19.3818 12.483 19.3912 12.5302 19.3912C12.5773 19.3912 12.624 19.3818 12.6676 19.3637C12.7111 19.3456 12.7506 19.319 12.7838 19.2855L14.2914 17.7779C14.3249 17.7447 14.3515 17.7052 14.3696 17.6616C14.3878 17.6181 14.3971 17.5714 14.3971 17.5243C14.3971 17.4771 14.3878 17.4304 14.3696 17.3869C14.3515 17.3433 14.3249 17.3038 14.2914 17.2706L13.4555 16.4275H14.6487C14.7434 16.4275 14.8343 16.3899 14.9013 16.3229C14.9683 16.2559 15.0059 16.165 15.0059 16.0703V14.9985H14.2914V15.713ZM10.0044 17.142C10.5729 17.142 11.1181 16.9162 11.5201 16.5142C11.9221 16.1122 12.1479 15.567 12.1479 14.9985H11.4334C11.4334 15.3775 11.2829 15.741 11.0149 16.009C10.7469 16.2769 10.3834 16.4275 10.0044 16.4275C9.62542 16.4275 9.26195 16.2769 8.99396 16.009C8.72597 15.741 8.57542 15.3775 8.57542 14.9985H7.86092C7.86092 15.567 8.08675 16.1122 8.48874 16.5142C8.89072 16.9162 9.43593 17.142 10.0044 17.142ZM15.0059 12.855V14.284C15.0059 14.3787 14.9683 14.4696 14.9013 14.5366C14.8343 14.6036 14.7434 14.6413 14.6487 14.6413H5.36017C5.26542 14.6413 5.17455 14.6036 5.10755 14.5366C5.04056 14.4696 5.00292 14.3787 5.00292 14.284V12.855C5.00292 12.7603 5.04056 12.6694 5.10755 12.6024C5.17455 12.5354 5.26542 12.4978 5.36017 12.4978H5.73528C5.80422 11.703 6.11515 10.9484 6.62618 10.3359C7.1372 9.72326 7.82375 9.28206 8.59328 9.07173C8.6513 8.74053 8.82424 8.44041 9.08169 8.22414C9.33915 8.00787 9.66461 7.88931 10.0008 7.88931C10.3371 7.88931 10.6625 8.00787 10.92 8.22414C11.1774 8.44041 11.3504 8.74053 11.4084 9.07173C12.1831 9.27675 12.8756 9.71578 13.3916 10.3289C13.9075 10.9421 14.2218 11.6994 14.2914 12.4978H14.6487C14.7434 12.4978 14.8343 12.5354 14.9013 12.6024C14.9683 12.6694 15.0059 12.7603 15.0059 12.855ZM6.44978 12.4978H13.5555C13.4869 11.8994 13.2516 11.3323 12.8764 10.8611C12.5012 10.3899 12.0013 10.0335 11.4334 9.83267V11.0688H10.7189V9.2825C10.7189 9.09301 10.6436 8.91127 10.5096 8.77728C10.3757 8.64328 10.1939 8.568 10.0044 8.568C9.81492 8.568 9.63319 8.64328 9.49919 8.77728C9.3652 8.91127 9.28992 9.09301 9.28992 9.2825V11.0688H8.57542V9.83267C8.00534 10.0304 7.50303 10.3858 7.12678 10.8575C6.75054 11.3292 6.51579 11.898 6.44978 12.4978ZM14.3093 13.2123H5.71742V13.9268H14.2914L14.3093 13.2123ZM8.57542 5.71C8.57542 5.42737 8.65923 5.15109 8.81625 4.91609C8.97327 4.6811 9.19645 4.49794 9.45756 4.38978C9.71868 4.28162 10.006 4.25332 10.2832 4.30846C10.5604 4.3636 10.815 4.4997 11.0149 4.69955C11.2147 4.8994 11.3508 5.15402 11.406 5.43122C11.4611 5.70842 11.4328 5.99574 11.3246 6.25686C11.2165 6.51797 11.0333 6.74115 10.7983 6.89817C10.5633 7.05519 10.287 7.139 10.0044 7.139C9.62542 7.139 9.26195 6.98845 8.99396 6.72046C8.72597 6.45247 8.57542 6.089 8.57542 5.71ZM9.28992 5.71C9.28992 5.85132 9.33182 5.98946 9.41033 6.10696C9.48884 6.22446 9.60043 6.31604 9.73099 6.37012C9.86155 6.42419 10.0052 6.43834 10.1438 6.41077C10.2824 6.38321 10.4097 6.31516 10.5096 6.21523C10.6096 6.11531 10.6776 5.98799 10.7052 5.8494C10.7328 5.7108 10.7186 5.56713 10.6645 5.43658C10.6105 5.30602 10.5189 5.19443 10.4014 5.11592C10.2839 5.03741 10.1457 4.9955 10.0044 4.9955C9.81492 4.9955 9.63319 5.07078 9.49919 5.20478C9.3652 5.33877 9.28992 5.52051 9.28992 5.71Z" fill="white"/>
</svg>
