<svg width="17" height="17" viewBox="0 0 17 17" fill="none" xmlns="http://www.w3.org/2000/svg">
<path d="M10.5218 3.36575C10.6434 3.40271 10.7638 3.44371 10.8827 3.48868C10.9353 3.50859 10.9893 3.51803 11.0424 3.51803C11.2247 3.51803 11.3964 3.40679 11.4647 3.2262C11.553 2.993 11.4354 2.73242 11.2022 2.6442C11.0645 2.59209 10.925 2.54459 10.7841 2.50177C10.5455 2.42933 10.2934 2.56402 10.2209 2.8026C10.1485 3.04117 10.2832 3.29331 10.5218 3.36575ZM12.5468 3.33821C12.3397 3.1993 12.0592 3.25455 11.9204 3.46162C11.7814 3.66868 11.8367 3.94912 12.0438 4.08804C13.6366 5.15662 14.5876 6.93806 14.5876 8.85335C14.5876 9.10267 14.7897 9.30481 15.039 9.30481C15.2884 9.30481 15.4905 9.10267 15.4905 8.85335C15.4905 6.63653 14.39 4.57478 12.5468 3.33821ZM8.06455 14.5343C7.93834 14.5168 7.81275 14.4951 7.68799 14.4692C7.4439 14.4184 7.20486 14.5752 7.15414 14.8193C7.10339 15.0634 7.26016 15.3025 7.50429 15.3532C7.64888 15.3832 7.79443 15.4084 7.94071 15.4287C7.96142 15.4315 7.98231 15.433 8.00322 15.433C8.22504 15.433 8.41854 15.2694 8.44985 15.0434C8.48402 14.7964 8.31152 14.5685 8.06455 14.5343ZM6.44334 14.0567C4.70569 13.2497 3.48966 11.6398 3.19041 9.75029C3.15138 9.50402 2.92006 9.33607 2.67387 9.37501C2.4276 9.41404 2.25957 9.64528 2.2986 9.89155C2.64498 12.0786 4.05225 13.9418 6.06305 14.8756C6.12251 14.9033 6.18731 14.9177 6.25291 14.9177C6.42315 14.9177 6.58622 14.8209 6.66263 14.6563C6.76769 14.4302 6.66949 14.1617 6.44334 14.0567Z" fill="white"/>
<path d="M8.85247 3.8645C6.10141 3.8645 3.86328 6.10263 3.86328 8.85367C3.86328 11.6047 6.10141 13.8428 8.85247 13.8428C9.70187 13.8428 10.5413 13.6244 11.2801 13.2114C11.4977 13.0897 11.5755 12.8147 11.4538 12.5971C11.3322 12.3794 11.0571 12.3016 10.8395 12.4233C10.2351 12.7613 9.54795 12.9399 8.85247 12.9399C6.59928 12.9399 4.7662 11.1068 4.7662 8.85367C4.7662 6.60048 6.59928 4.76742 8.85247 4.76742C11.1056 4.76742 12.9387 6.6005 12.9387 8.85367C12.9387 9.32899 12.8575 9.79476 12.6973 10.2381C12.6126 10.4726 12.734 10.7313 12.9685 10.8161C13.203 10.9008 13.4618 10.7794 13.5465 10.5449C13.7423 10.0029 13.8416 9.43389 13.8416 8.85365C13.8416 6.10264 11.6035 3.8645 8.85247 3.8645Z" fill="white"/>
<path d="M12.7198 11.2706C12.5228 11.1179 12.2391 11.1539 12.0864 11.351C12.0099 11.4498 11.929 11.545 11.8438 11.6364C11.6739 11.8188 11.6839 12.1045 11.8663 12.2745C11.9498 12.3525 12.0598 12.3958 12.174 12.3956C12.236 12.3957 12.2974 12.383 12.3542 12.3583C12.4111 12.3335 12.4622 12.2973 12.5044 12.2519C12.6082 12.1405 12.7069 12.0244 12.8002 11.9041C12.9529 11.7069 12.9169 11.4233 12.7198 11.2706Z" fill="white"/>
<path d="M10.3299 8.85341C10.3299 8.03929 9.66755 7.37695 8.85343 7.37695C8.03929 7.37695 7.37695 8.03929 7.37695 8.85341C7.37695 9.66752 8.03929 10.3299 8.85343 10.3299C9.66757 10.3299 10.3299 9.66755 10.3299 8.85341ZM8.85343 9.42694C8.53718 9.42694 8.27987 9.1697 8.27987 8.85341C8.27987 8.53716 8.53718 8.27987 8.85343 8.27987C9.16968 8.27987 9.42696 8.53716 9.42696 8.85341C9.42696 9.1697 9.16968 9.42694 8.85343 9.42694Z" fill="white"/>
<path d="M11.5836 9.51317C11.948 9.51317 12.2434 9.21778 12.2434 8.85339C12.2434 8.489 11.948 8.1936 11.5836 8.1936C11.2192 8.1936 10.9238 8.489 10.9238 8.85339C10.9238 9.21778 11.2192 9.51317 11.5836 9.51317Z" fill="white"/>
<path d="M8.85314 6.78368C9.21753 6.78368 9.51293 6.48829 9.51293 6.1239C9.51293 5.75951 9.21753 5.46411 8.85314 5.46411C8.48876 5.46411 8.19336 5.75951 8.19336 6.1239C8.19336 6.48829 8.48876 6.78368 8.85314 6.78368Z" fill="white"/>
<path d="M6.12265 9.51313C6.48703 9.51313 6.78242 9.21774 6.78242 8.85337C6.78242 8.48899 6.48703 8.1936 6.12265 8.1936C5.75828 8.1936 5.46289 8.48899 5.46289 8.85337C5.46289 9.21774 5.75828 9.51313 6.12265 9.51313Z" fill="white"/>
<path d="M8.85314 12.2427C9.21753 12.2427 9.51293 11.9473 9.51293 11.5829C9.51293 11.2185 9.21753 10.9231 8.85314 10.9231C8.48876 10.9231 8.19336 11.2185 8.19336 11.5829C8.19336 11.9473 8.48876 12.2427 8.85314 12.2427Z" fill="white"/>
<path d="M16.3597 5.68229C15.9494 4.71215 15.362 3.84097 14.614 3.09295C13.866 2.34493 12.9948 1.75758 12.0246 1.34725C11.02 0.922309 9.9531 0.70685 8.85351 0.70685C8.69762 0.70685 8.54119 0.711477 8.38516 0.720349L8.39306 0.469315C8.39493 0.410056 8.38511 0.351009 8.36416 0.295546C8.3432 0.240084 8.31153 0.189293 8.27094 0.146074C8.23036 0.102855 8.18165 0.0680547 8.12762 0.0436611C8.07358 0.0192675 8.01526 0.00575828 7.956 0.00390509C7.87363 0.00131819 7.79122 1.63575e-05 7.70881 0C6.64792 0 5.6197 0.212299 4.6527 0.631005C3.71912 1.03522 2.8851 1.61234 2.17385 2.3463C1.46332 3.07952 0.913281 3.93014 0.539066 4.87454C0.15054 5.85507 -0.0295017 6.8918 0.00392891 7.95598C0.00769525 8.07565 0.0588443 8.18892 0.146125 8.27088C0.233405 8.35284 0.349668 8.39677 0.469339 8.39301L0.72035 8.38511C0.71144 8.54107 0.706946 8.69725 0.706874 8.85346C0.706874 9.95306 0.922333 11.02 1.34725 12.0246C1.7576 12.9948 2.34493 13.8659 3.09295 14.614C3.841 15.362 4.71215 15.9493 5.68232 16.3596C6.68695 16.7845 7.75386 17 8.85348 17C9.95308 17 11.02 16.7845 12.0246 16.3596C12.9948 15.9493 13.8659 15.362 14.614 14.614C15.362 13.8659 15.9493 12.9948 16.3597 12.0246C16.7846 11.02 17.0001 9.95306 17.0001 8.85346C17.0001 7.75388 16.7847 6.68695 16.3597 5.68229ZM2.82223 2.97464C4.06259 1.69469 5.70756 0.965672 7.47594 0.906801L7.41865 2.73029C6.83532 2.76379 6.26946 2.89794 5.73266 3.13033C5.12851 3.39188 4.58884 3.76531 4.12862 4.2402C3.28584 5.10987 2.79821 6.22481 2.73018 7.41858L0.90678 7.4759C0.962784 5.7852 1.63368 4.20117 2.82223 2.97464ZM8.85351 16.0971C4.85931 16.0971 1.60982 12.8476 1.60982 8.85348C1.60982 8.68802 1.61566 8.52193 1.62684 8.35667L3.18988 8.30755C3.30955 8.30377 3.42282 8.25261 3.50478 8.16533C3.58674 8.07805 3.63068 7.96179 3.62694 7.84212C3.59186 6.72611 4.00029 5.67008 4.77701 4.86858C5.55422 4.06657 6.59605 3.62488 7.71061 3.62488C7.7542 3.62488 7.79847 3.62558 7.84215 3.62696C7.9014 3.62882 7.96045 3.61899 8.01591 3.59803C8.07137 3.57707 8.12216 3.5454 8.16538 3.50481C8.20859 3.46422 8.24339 3.41552 8.26779 3.36148C8.29218 3.30745 8.3057 3.24914 8.30756 3.18988L8.35668 1.62681C8.52204 1.61556 8.68774 1.60988 8.85348 1.60979C12.8477 1.60979 16.0972 4.85931 16.0972 8.85348C16.0972 12.8476 12.8477 16.0971 8.85351 16.0971Z" fill="white"/>
</svg>
