<svg width="24" height="25" viewBox="0 0 24 25" fill="none" xmlns="http://www.w3.org/2000/svg">
<path d="M12.711 13.2032L9.95034 15.9519C9.83784 16.0634 9.74854 16.1962 9.6876 16.3425C9.62667 16.4887 9.59529 16.6456 9.59529 16.8041C9.59529 16.9625 9.62667 17.1194 9.6876 17.2657C9.74854 17.4119 9.83784 17.5447 9.95034 17.6563C10.0619 17.7688 10.1947 17.8581 10.3409 17.919C10.4872 17.9799 10.6441 18.0113 10.8025 18.0113C10.961 18.0113 11.1179 17.9799 11.2641 17.919C11.4104 17.8581 11.5432 17.7688 11.6547 17.6563L16.4559 12.8551C16.5651 12.741 16.6508 12.6064 16.7079 12.459C16.828 12.1668 16.828 11.8391 16.7079 11.5468C16.6508 11.3995 16.5651 11.2649 16.4559 11.1507L11.6547 6.34961C11.5428 6.2377 11.41 6.14892 11.2637 6.08836C11.1175 6.02779 10.9608 5.99662 10.8025 5.99662C10.6443 5.99662 10.4875 6.02779 10.3413 6.08836C10.1951 6.14892 10.0622 6.2377 9.95034 6.34961C9.83842 6.46152 9.74965 6.59438 9.68908 6.7406C9.62852 6.88682 9.59734 7.04354 9.59734 7.20181C9.59734 7.36008 9.62852 7.5168 9.68908 7.66302C9.74965 7.80924 9.83842 7.9421 9.95034 8.05401L12.711 10.8027H1.20028C0.881947 10.8027 0.576651 10.9291 0.351554 11.1542C0.126458 11.3793 0 11.6846 0 12.0029C0 12.3213 0.126458 12.6266 0.351554 12.8517C0.576651 13.0768 0.881947 13.2032 1.20028 13.2032H12.711ZM12.0028 0.00011966C9.7596 -0.00989523 7.55847 0.608918 5.64909 1.78637C3.73971 2.96382 2.1985 4.65278 1.20028 6.66168C1.05703 6.94818 1.03346 7.27986 1.13475 7.58374C1.23605 7.88762 1.45391 8.13881 1.74041 8.28206C2.02691 8.42531 2.35858 8.44889 2.66246 8.34759C2.96634 8.2463 3.21754 8.02844 3.36079 7.74194C4.1196 6.20956 5.27384 4.90761 6.70423 3.97064C8.13463 3.03366 9.78928 2.49565 11.4972 2.4122C13.2051 2.32875 14.9043 2.70289 16.4193 3.49595C17.9342 4.28902 19.2099 5.47224 20.1145 6.92334C21.019 8.37444 21.5197 10.0408 21.5647 11.7501C21.6098 13.4595 21.1975 15.1499 20.3706 16.6466C19.5437 18.1433 18.3321 19.3921 16.861 20.2638C15.3899 21.1355 13.7128 21.5986 12.0028 21.6052C10.2131 21.6129 8.45737 21.1159 6.93726 20.1712C5.41715 19.2264 4.19421 17.8722 3.4088 16.2639C3.26555 15.9774 3.01435 15.7596 2.71047 15.6583C2.40659 15.557 2.07492 15.5806 1.78842 15.7238C1.50192 15.8671 1.28406 16.1183 1.18276 16.4221C1.08147 16.726 1.10504 17.0577 1.24829 17.3442C2.19991 19.2593 3.64588 20.8853 5.43664 22.0542C7.2274 23.223 9.29792 23.8922 11.434 23.9925C13.5701 24.0929 15.6943 23.6207 17.5867 22.6248C19.4791 21.629 21.0712 20.1456 22.1981 18.3282C23.325 16.5108 23.9459 14.4253 23.9966 12.2874C24.0473 10.1495 23.5259 8.03696 22.4864 6.16817C21.4468 4.29937 19.9269 2.74224 18.0838 1.65784C16.2406 0.573428 14.1413 0.00112364 12.0028 0.00011966Z" fill="white"/>
</svg>
