<svg width="100" height="100" viewBox="0 0 100 100" fill="none" xmlns="http://www.w3.org/2000/svg">
<g clip-path="url(#clip0_1545_14653)">
<path d="M90.7016 25.4998L70.7016 18.0998C71.1016 18.2998 70.1016 17.6998 69.3016 18.0998L50.0016 25.1998L30.8016 18.0998C31.2016 18.2998 30.2016 17.6998 29.4016 18.0998L9.40156 25.4998C8.60156 25.7998 8.10156 26.4998 8.10156 27.3998V79.9998C8.10156 83.4998 12.5016 81.1998 10.8016 81.8998L30.0016 74.7998L49.2016 81.8998C50.1016 82.1998 51.1016 81.6998 50.7016 81.8998L70.0016 74.7998L89.3016 81.8998C90.6016 82.3998 92.0016 81.4998 92.0016 79.9998V27.3998C92.0016 26.5998 91.5016 25.7998 90.7016 25.4998ZM28.0016 71.2998L12.0016 76.9998V28.6998L28.0016 22.8998V71.2998ZM48.0016 76.9998L32.0016 71.1998V22.8998L48.0016 28.6998V76.9998ZM68.0016 71.2998L52.0016 76.9998V28.6998L68.0016 22.8998V71.2998ZM88.0016 76.9998L72.0016 71.1998V22.8998L88.0016 28.6998V76.9998Z" fill="white"/>
<path d="M1364 -370V1314H-420V-370H1364ZM1372 -378H-428V1322H1372V-378Z" fill="white"/>
</g>
<defs>
<clipPath id="clip0_1545_14653">
<rect width="100" height="100" fill="white"/>
</clipPath>
</defs>
</svg>
