<svg width="40" height="60" viewBox="0 0 40 60" fill="none" xmlns="http://www.w3.org/2000/svg">
<path d="M20.0004 6C13.1588 6 7.59082 14.352 7.59082 24.6144C7.59082 34.6272 19.0468 52.9248 19.5332 53.6928C19.6548 53.8848 19.8276 54 20.0004 54C20.1732 54 20.346 53.8848 20.4676 53.6928C20.954 52.9248 32.41 34.6272 32.41 24.6144C32.41 14.352 26.842 6 20.0004 6ZM20.0004 32.5359C17.0851 32.5359 14.7132 28.9823 14.7132 24.6145C14.7132 20.2416 17.0851 16.6838 20.0004 16.6838C22.9161 16.6838 25.2879 20.2416 25.2879 24.6145C25.2879 28.9823 22.9161 32.5359 20.0004 32.5359Z" fill="#FF1E1C"/>
</svg>
