<svg width="26" height="30" viewBox="0 0 26 30" fill="none" xmlns="http://www.w3.org/2000/svg">
<path d="M24.5888 7.47736L17.6166 0.728624C17.1927 0.316137 16.614 0.0812489 16.0182 0.0812489L2.88741 0.046875C1.29475 0.046875 0 1.33017 0 2.91136V26.5033C0 28.0559 1.33485 29.3735 2.91605 29.3735H22.3373C23.8898 29.3735 25.1502 28.0845 25.1502 26.4976V8.84659C25.1502 8.31379 24.9497 7.82683 24.5888 7.47736ZM17.588 3.89102L21.1915 7.37424H18.2124C17.8801 7.37424 17.588 7.11644 17.588 6.82426V3.89102ZM22.3373 27.0819H2.91605C2.59523 27.0819 2.29159 26.8012 2.29159 26.4976V2.91136C2.29159 2.60773 2.57231 2.33847 2.88741 2.33847L15.2964 2.37284V6.82426C15.2964 8.38827 16.6026 9.66583 18.2124 9.66583H22.8586V26.4976C22.8586 26.784 22.6638 27.0819 22.3373 27.0819Z" fill="white"/>
<path d="M4.98405 15.3384C4.98405 15.9685 5.49966 16.4841 6.12984 16.4841H16.1556C16.7857 16.4841 17.3014 15.9685 17.3014 15.3384C17.3014 14.7082 16.7857 14.1926 16.1556 14.1926H6.12984C5.49966 14.1926 4.98405 14.7082 4.98405 15.3384ZM6.07255 11.901H12.7182C13.3484 11.901 13.864 11.3854 13.864 10.7552C13.864 10.125 13.3484 9.60938 12.7182 9.60938H6.07255C5.44237 9.60938 4.92676 10.125 4.92676 10.7552C4.92676 11.3854 5.44237 11.901 6.07255 11.901ZM19.02 18.7757H6.12984C5.49966 18.7757 4.98405 19.2913 4.98405 19.9215C4.98405 20.5517 5.49966 21.0673 6.12984 21.0673H19.02C19.6502 21.0673 20.1658 20.5517 20.1658 19.9215C20.1658 19.2913 19.6502 18.7757 19.02 18.7757Z" fill="white"/>
</svg>
