<svg width="20" height="20" viewBox="0 0 20 20" fill="none" xmlns="http://www.w3.org/2000/svg">
<path d="M9.99935 4.16675C8.84563 4.16675 7.71781 4.50887 6.75853 5.14984C5.79924 5.79082 5.05157 6.70186 4.61005 7.76776C4.16854 8.83366 4.05302 10.0066 4.2781 11.1381C4.50318 12.2697 5.05876 13.3091 5.87456 14.1249C6.69037 14.9407 7.72977 15.4962 8.86132 15.7213C9.99288 15.9464 11.1658 15.8309 12.2317 15.3894C13.2976 14.9479 14.2086 14.2002 14.8496 13.2409C15.4906 12.2816 15.8327 11.1538 15.8327 10.0001C15.8327 8.45299 15.2181 6.96925 14.1241 5.87529C13.0302 4.78133 11.5464 4.16675 9.99935 4.16675ZM9.99935 15.0001C9.01045 15.0001 8.04375 14.7068 7.2215 14.1574C6.39925 13.608 5.75839 12.8271 5.37995 11.9135C5.00152 10.9999 4.9025 9.99453 5.09543 9.02463C5.28835 8.05472 5.76456 7.16381 6.46382 6.46455C7.16308 5.76529 8.054 5.28908 9.0239 5.09615C9.99381 4.90323 10.9991 5.00225 11.9128 5.38068C12.8264 5.75912 13.6073 6.39998 14.1567 7.22223C14.7061 8.04448 14.9994 9.01117 14.9994 10.0001C14.9994 11.3262 14.4726 12.5979 13.5349 13.5356C12.5972 14.4733 11.3254 15.0001 9.99935 15.0001Z" fill="white"/>
<path d="M19.0917 8.175C18.3625 7.96667 17.675 7.86667 17.3042 6.9625C16.9333 6.05833 17.4 5.4375 17.7208 4.85833C17.8514 4.61956 17.9005 4.34468 17.8607 4.07545C17.8208 3.80623 17.6942 3.55736 17.5 3.36667L16.6333 2.5C16.4411 2.30784 16.1916 2.18354 15.9224 2.14595C15.6532 2.10836 15.3792 2.15951 15.1417 2.29167L14.5583 2.61667C14.3262 2.74543 14.068 2.8201 13.803 2.8351C13.5379 2.85009 13.2729 2.80503 13.0278 2.70328C12.7826 2.60152 12.5636 2.4457 12.387 2.24745C12.2105 2.04919 12.0811 1.81363 12.0083 1.55833L11.825 0.920835C11.7529 0.656627 11.596 0.423417 11.3784 0.257053C11.1609 0.0906881 10.8947 0.000376958 10.6208 1.24988e-06H9.37084C9.09859 -0.000383621 8.83366 0.0881252 8.61631 0.252076C8.39896 0.416026 8.24108 0.646453 8.16667 0.908335C7.975 1.57917 7.86667 2.31667 6.9625 2.69167C6.05833 3.06667 5.42084 2.59583 4.85 2.275C4.6117 2.14694 4.33829 2.09965 4.07083 2.14022C3.80336 2.18079 3.55627 2.30704 3.36667 2.5L2.5 3.36667C2.30717 3.55836 2.18209 3.8077 2.14374 4.07689C2.1054 4.34607 2.15587 4.62042 2.2875 4.85833L2.6125 5.44167C2.74132 5.67352 2.81614 5.93146 2.8314 6.19626C2.84666 6.46105 2.80195 6.72588 2.70062 6.97099C2.59929 7.21611 2.44395 7.43519 2.24617 7.61192C2.04838 7.78864 1.81326 7.91845 1.55833 7.99167L0.916668 8.175C0.653236 8.24789 0.420955 8.40511 0.255396 8.6226C0.0898365 8.84008 0.000125756 9.10584 1.24988e-06 9.37917V10.6292C-0.000383621 10.9014 0.0881252 11.1663 0.252076 11.3837C0.416026 11.601 0.646453 11.7589 0.908335 11.8333C1.63333 12.0375 2.325 12.1417 2.69583 13.0458C3.06667 13.95 2.60417 14.5708 2.27917 15.15C2.15059 15.3879 2.10261 15.661 2.14243 15.9285C2.18224 16.1959 2.30771 16.4432 2.5 16.6333L3.36667 17.5C3.55836 17.6928 3.8077 17.8179 4.07689 17.8563C4.34607 17.8946 4.62042 17.8441 4.85833 17.7125L5.45 17.3833C5.68127 17.2561 5.93817 17.1823 6.20174 17.1676C6.46531 17.153 6.72881 17.1977 6.97279 17.2984C7.21677 17.3992 7.43499 17.5535 7.61134 17.75C7.78769 17.9464 7.91767 18.1799 7.99167 18.4333L8.175 19.0833C8.24789 19.3468 8.40511 19.579 8.6226 19.7446C8.84008 19.9102 9.10584 19.9999 9.37917 20H10.6292C10.9014 20.0004 11.1663 19.9119 11.3837 19.7479C11.601 19.584 11.7589 19.3535 11.8333 19.0917C12.0375 18.3667 12.1417 17.675 13.0458 17.3042C13.95 16.9333 14.5625 17.3958 15.15 17.7208C15.3879 17.8494 15.661 17.8974 15.9285 17.8576C16.1959 17.8178 16.4432 17.6923 16.6333 17.5L17.5 16.6333C17.6922 16.4411 17.8165 16.1916 17.8541 15.9224C17.8916 15.6532 17.8405 15.3791 17.7083 15.1417L17.3792 14.55C17.2526 14.3192 17.1794 14.0629 17.1648 13.8001C17.1503 13.5372 17.1948 13.2745 17.2951 13.0311C17.3954 12.7877 17.549 12.5699 17.7445 12.3936C17.94 12.2174 18.1726 12.0871 18.425 12.0125L19.0833 11.825C19.3468 11.7521 19.5791 11.5949 19.7446 11.3774C19.9102 11.1599 19.9999 10.8942 20 10.6208V9.37083C19.9986 9.10001 19.9092 8.83698 19.7454 8.62131C19.5816 8.40565 19.3522 8.24902 19.0917 8.175ZM19.1667 10.6208C19.1667 10.9833 18.9 11.0125 18.2083 11.2083C17.8343 11.3172 17.4895 11.5088 17.1995 11.769C16.9096 12.0292 16.682 12.3514 16.5335 12.7115C16.385 13.0717 16.3195 13.4607 16.3419 13.8496C16.3642 14.2386 16.4738 14.6175 16.6625 14.9583C16.9917 15.55 17.1875 15.7917 16.9208 16.0458C16.0292 16.9375 15.8958 17.1917 15.5458 16.9958C14.8333 16.5792 13.9792 16.0167 12.7 16.5458C10.7708 17.3417 11.45 19.1708 10.6167 19.1708C8.8875 19.1708 9.1125 19.3583 8.7875 18.2167C8.62973 17.6757 8.30077 17.2006 7.85 16.8625C7.39923 16.5244 6.85097 16.3417 6.2875 16.3417C5.52083 16.3417 5.09167 16.6375 4.44583 16.9958C4.09583 17.1875 3.9625 16.9375 3.07083 16.0458C2.79583 15.7708 3.02083 15.5167 3.32917 14.9583C3.51784 14.6172 3.62727 14.238 3.64934 13.8489C3.67141 13.4597 3.60556 13.0705 3.45666 12.7103C3.30776 12.3501 3.07964 12.028 2.78924 11.768C2.49884 11.508 2.15361 11.3167 1.77917 11.2083C1.15 11.025 0.833335 11.0042 0.833335 10.6208C0.833335 9.32917 0.754168 9.0875 1.1375 8.97917C1.97083 8.7375 2.94583 8.54167 3.4625 7.29167C3.97917 6.04167 3.43333 5.20833 3.00833 4.45417C2.81667 4.10417 3.06667 3.96667 3.95833 3.07917C4.225 2.8125 4.45833 3.0125 5.03333 3.33333C5.37501 3.52034 5.75429 3.62832 6.14322 3.64933C6.53216 3.67033 6.92086 3.60382 7.28069 3.45469C7.64051 3.30556 7.96231 3.07761 8.22236 2.78764C8.48242 2.49766 8.67412 2.15305 8.78334 1.77917C8.9875 1.1 9 0.833335 9.37917 0.833335C10.6542 0.833335 10.9125 0.754168 11.0208 1.1375C11.2458 1.91667 11.4375 2.9375 12.7083 3.4625C14.65 4.26667 15.4625 2.5 16.0417 3.07917C17.2542 4.2875 17.2417 4.00417 16.6625 5.04583C16.4738 5.38665 16.3642 5.76558 16.3419 6.15452C16.3195 6.54347 16.385 6.93245 16.5335 7.29263C16.682 7.65281 16.9096 7.97495 17.1995 8.23517C17.4895 8.49539 17.8343 8.68701 18.2083 8.79583C19.3583 9.11667 19.1667 8.90833 19.1667 10.6208Z" fill="white"/>
</svg>
