<svg xmlns="http://www.w3.org/2000/svg" viewBox="0 0 15 13" id="Trip"><path d="M13.5 10c-.651 0-1.201.419-1.408 1H3c-1.103 0-2-.897-2-2s.897-2 2-2h9c1.654 0 3-1.346 3-3s-1.346-3-3-3H2.908C2.701.419 2.151 0 1.5 0 .673 0 0 .673 0 1.5S.673 3 1.5 3c.651 0 1.201-.419 1.408-1H12c1.103 0 2 .897 2 2s-.897 2-2 2H3C1.346 6 0 7.346 0 9s1.346 3 3 3h9.092c.207.581.757 1 1.408 1 .827 0 1.5-.673 1.5-1.5s-.673-1.5-1.5-1.5zm-12-8a.5.5 0 1 1 0-1 .5.5 0 0 1 0 1zm12 10a.5.5 0 1 1 0-1 .5.5 0 0 1 0 1z" fill="#ffffff" class="color000000 svgShape"></path></svg>