<svg width="9" height="11" viewBox="0 0 9 11" fill="none" xmlns="http://www.w3.org/2000/svg">
<path d="M7.84948 3.92917L7.67231 9.29164C7.65721 9.7509 7.46375 10.1862 7.13296 10.5052C6.80218 10.8241 6.36012 11.0016 5.90061 11H2.5344C2.07519 11.0016 1.63339 10.8244 1.30266 10.5058C0.971921 10.1872 0.778255 9.75236 0.762713 9.29341L0.585544 3.92917C0.581667 3.8117 0.624614 3.6975 0.704938 3.6117C0.78526 3.52589 0.89638 3.47551 1.01385 3.47163C1.13132 3.46776 1.24552 3.5107 1.33132 3.59103C1.41713 3.67135 1.46751 3.78247 1.47139 3.89994L1.64856 9.26373C1.65738 9.49271 1.75459 9.70936 1.91977 9.86819C2.08495 10.027 2.30525 10.1156 2.5344 10.1155H5.90061C6.13006 10.1156 6.35061 10.0267 6.51584 9.86755C6.68107 9.70835 6.77809 9.49125 6.78646 9.26196L6.96363 3.89994C6.96751 3.78247 7.01789 3.67135 7.10369 3.59103C7.1895 3.5107 7.3037 3.46776 7.42117 3.47163C7.53864 3.47551 7.64976 3.52589 7.73008 3.6117C7.8104 3.6975 7.85335 3.8117 7.84948 3.92917ZM8.43546 2.14464C8.43546 2.26211 8.3888 2.37477 8.30573 2.45783C8.22267 2.54089 8.11001 2.58756 7.99254 2.58756H0.442923C0.325452 2.58756 0.212793 2.54089 0.129729 2.45783C0.0466648 2.37477 0 2.26211 0 2.14464C0 2.02717 0.0466648 1.91451 0.129729 1.83144C0.212793 1.74838 0.325452 1.70171 0.442923 1.70171H1.81598C1.95632 1.70209 2.09178 1.65024 2.196 1.55626C2.30022 1.46227 2.36575 1.33287 2.37982 1.19324C2.41251 0.86569 2.56597 0.562043 2.8103 0.341457C3.05463 0.120871 3.37233 -0.000851878 3.7015 4.48808e-06H4.73351C5.06269 -0.000851878 5.38039 0.120871 5.62472 0.341457C5.86905 0.562043 6.02251 0.86569 6.0552 1.19324C6.06927 1.33287 6.1348 1.46227 6.23902 1.55626C6.34324 1.65024 6.4787 1.70209 6.61904 1.70171H7.9921C8.10957 1.70171 8.22223 1.74838 8.30529 1.83144C8.38835 1.91451 8.43502 2.02717 8.43502 2.14464H8.43546ZM3.14874 1.70171H5.28717C5.22896 1.56872 5.1909 1.4278 5.17422 1.28359C5.16325 1.17442 5.11214 1.0732 5.0308 0.999553C4.94946 0.925906 4.84368 0.885072 4.73396 0.884964H3.70195C3.59222 0.885072 3.48644 0.925906 3.4051 0.999553C3.32376 1.0732 3.27266 1.17442 3.26168 1.28359C3.24487 1.42783 3.20709 1.56875 3.14874 1.70171ZM3.59476 8.41243V4.64095C3.59476 4.52348 3.54809 4.41082 3.46503 4.32775C3.38197 4.24469 3.26931 4.19803 3.15184 4.19803C3.03437 4.19803 2.92171 4.24469 2.83864 4.32775C2.75558 4.41082 2.70891 4.52348 2.70891 4.64095V8.41421C2.70891 8.53168 2.75558 8.64434 2.83864 8.7274C2.92171 8.81046 3.03437 8.85713 3.15184 8.85713C3.26931 8.85713 3.38197 8.81046 3.46503 8.7274C3.54809 8.64434 3.59476 8.53168 3.59476 8.41421V8.41243ZM5.72699 8.41243V4.64095C5.72699 4.52348 5.68032 4.41082 5.59726 4.32775C5.5142 4.24469 5.40154 4.19803 5.28407 4.19803C5.1666 4.19803 5.05394 4.24469 4.97087 4.32775C4.88781 4.41082 4.84114 4.52348 4.84114 4.64095V8.41421C4.84114 8.53168 4.88781 8.64434 4.97087 8.7274C5.05394 8.81046 5.1666 8.85713 5.28407 8.85713C5.40154 8.85713 5.5142 8.81046 5.59726 8.7274C5.68032 8.64434 5.72699 8.53168 5.72699 8.41421V8.41243Z" fill="white"/>
</svg>
