<svg width="11" height="11" viewBox="0 0 11 11" fill="none" xmlns="http://www.w3.org/2000/svg">
<path d="M1.60946 11.0001H8.50712C8.93463 10.9989 9.3442 10.8281 9.64594 10.5253C9.94768 10.2224 10.1169 9.8122 10.1166 9.38469V5.91884C10.1166 5.79688 10.0681 5.67992 9.98189 5.59368C9.89565 5.50744 9.77869 5.459 9.65673 5.459C9.53477 5.459 9.41781 5.50744 9.33157 5.59368C9.24533 5.67992 9.19689 5.79688 9.19689 5.91884V9.38469C9.1975 9.56836 9.12521 9.74478 8.99589 9.87522C8.86658 10.0057 8.69079 10.0795 8.50712 10.0804H1.60946C1.42578 10.0795 1.25 10.0057 1.12068 9.87522C0.991362 9.74478 0.919077 9.56836 0.919689 9.38469V2.49898C0.919077 2.3153 0.991362 2.13889 1.12068 2.00845C1.25 1.87801 1.42578 1.80421 1.60946 1.80323H5.05829C5.18025 1.80323 5.29721 1.75479 5.38345 1.66855C5.46968 1.58231 5.51813 1.46535 5.51813 1.34339C5.51813 1.22143 5.46968 1.10447 5.38345 1.01823C5.29721 0.931993 5.18025 0.883545 5.05829 0.883545H1.60946C1.18194 0.884763 0.772371 1.05554 0.470632 1.3584C0.168892 1.66126 -0.000366538 2.07146 5.96008e-07 2.49898V9.38469C-0.000366538 9.8122 0.168892 10.2224 0.470632 10.5253C0.772371 10.8281 1.18194 10.9989 1.60946 11.0001Z" fill="white"/>
</svg>
