<svg width="16" height="19" viewBox="0 0 16 19" fill="none" xmlns="http://www.w3.org/2000/svg">
<path d="M10.5297 2.32232H5.47018C5.36232 2.32232 5.25887 2.27947 5.1826 2.2032C5.10632 2.12692 5.06347 2.02347 5.06347 1.91561V0.406711C5.06347 0.298844 5.10632 0.195396 5.1826 0.119123C5.25887 0.0428498 5.36232 0 5.47018 0H10.5297C10.6375 0 10.741 0.0428498 10.8173 0.119123C10.8935 0.195396 10.9364 0.298844 10.9364 0.406711V1.90341C10.938 1.95783 10.9287 2.01204 10.909 2.0628C10.8893 2.11356 10.8596 2.15985 10.8217 2.19891C10.7837 2.23798 10.7383 2.26904 10.6882 2.29024C10.638 2.31143 10.5841 2.32234 10.5297 2.32232ZM5.8769 1.5089H10.123V0.813422H5.8769V1.5089ZM13.3441 6.07626H6.59271C6.48484 6.07626 6.38139 6.03341 6.30512 5.95714C6.22885 5.88086 6.186 5.77741 6.186 5.66955C6.186 5.56168 6.22885 5.45823 6.30512 5.38196C6.38139 5.30569 6.48484 5.26284 6.59271 5.26284H13.3441C13.452 5.26284 13.5554 5.30569 13.6317 5.38196C13.708 5.45823 13.7508 5.56168 13.7508 5.66955C13.7508 5.77741 13.708 5.88086 13.6317 5.95714C13.5554 6.03341 13.452 6.07626 13.3441 6.07626ZM13.3441 10.5745H6.59271C6.48484 10.5745 6.38139 10.5316 6.30512 10.4554C6.22885 10.3791 6.186 10.2756 6.186 10.1678C6.186 10.0599 6.22885 9.95645 6.30512 9.88018C6.38139 9.80391 6.48484 9.76106 6.59271 9.76106H13.3441C13.452 9.76106 13.5554 9.80391 13.6317 9.88018C13.708 9.95645 13.7508 10.0599 13.7508 10.1678C13.7508 10.2756 13.708 10.3791 13.6317 10.4554C13.5554 10.5316 13.452 10.5745 13.3441 10.5745ZM13.3441 15.0727H6.59271C6.48484 15.0727 6.38139 15.0299 6.30512 14.9536C6.22885 14.8773 6.186 14.7739 6.186 14.666C6.186 14.5581 6.22885 14.4547 6.30512 14.3784C6.38139 14.3021 6.48484 14.2593 6.59271 14.2593H13.3441C13.452 14.2593 13.5554 14.3021 13.6317 14.3784C13.708 14.4547 13.7508 14.5581 13.7508 14.666C13.7508 14.7739 13.708 14.8773 13.6317 14.9536C13.5554 15.0299 13.452 15.0727 13.3441 15.0727ZM15.5932 18.0742H0.593722C0.485856 18.0742 0.382408 18.0314 0.306135 17.9551C0.229862 17.8788 0.187012 17.7754 0.187012 17.6675C0.187012 17.5596 0.229862 17.4562 0.306135 17.3799C0.382408 17.3037 0.485856 17.2608 0.593722 17.2608H15.5932C15.7011 17.2608 15.8045 17.3037 15.8808 17.3799C15.9571 17.4562 15.9999 17.5596 15.9999 17.6675C15.9999 17.7754 15.9571 17.8788 15.8808 17.9551C15.8045 18.0314 15.7011 18.0742 15.5932 18.0742ZM4.53068 6.82461H2.84283C2.73497 6.82461 2.63152 6.78176 2.55525 6.70548C2.47897 6.62921 2.43612 6.52576 2.43612 6.4179V4.79105C2.43612 4.68319 2.47897 4.57974 2.55525 4.50347C2.63152 4.42719 2.73497 4.38434 2.84283 4.38434H4.53068C4.63855 4.38434 4.742 4.42719 4.81827 4.50347C4.89454 4.57974 4.93739 4.68319 4.93739 4.79105V6.4179C4.93739 6.52576 4.89454 6.62921 4.81827 6.70548C4.742 6.78176 4.63855 6.82461 4.53068 6.82461ZM3.24954 6.01119H4.12397V5.19776H3.24954V6.01119ZM4.53068 11.3228H2.84283C2.73497 11.3228 2.63152 11.28 2.55525 11.2037C2.47897 11.1274 2.43612 11.024 2.43612 10.9161V9.28927C2.43612 9.18141 2.47897 9.07796 2.55525 9.00169C2.63152 8.92541 2.73497 8.88256 2.84283 8.88256H4.53068C4.63855 8.88256 4.742 8.92541 4.81827 9.00169C4.89454 9.07796 4.93739 9.18141 4.93739 9.28927V10.9161C4.93739 11.024 4.89454 11.1274 4.81827 11.2037C4.742 11.28 4.63855 11.3228 4.53068 11.3228ZM3.24954 10.5094H4.12397V9.69598H3.24954V10.5094ZM4.53068 15.8251H2.84283C2.73497 15.8251 2.63152 15.7823 2.55525 15.706C2.47897 15.6297 2.43612 15.5263 2.43612 15.4184V13.7916C2.43612 13.6837 2.47897 13.5802 2.55525 13.504C2.63152 13.4277 2.73497 13.3849 2.84283 13.3849H4.53068C4.63855 13.3849 4.742 13.4277 4.81827 13.504C4.89454 13.5802 4.93739 13.6837 4.93739 13.7916V15.4184C4.93739 15.5263 4.89454 15.6297 4.81827 15.706C4.742 15.7823 4.63855 15.8251 4.53068 15.8251ZM3.24954 15.0117H4.12397V14.1983H3.24954V15.0117Z" fill="white"/>
</svg>
