<svg width="30" height="30" viewBox="0 0 26 26" fill="none" xmlns="http://www.w3.org/2000/svg">
<path d="M17.2618 6.33222V10.5935H18.4795V6.33222C18.4795 5.32265 17.6616 4.50514 16.653 4.50514H15.4353V5.72278H16.653C16.9892 5.72278 17.2618 5.9957 17.2618 6.33222ZM7.82499 6.94042C8.32949 6.94042 8.73824 6.53197 8.73824 6.02779V4.20133C8.73824 3.69654 8.32949 3.28748 7.82499 3.28748C7.32051 3.28748 6.91176 3.69654 6.91176 4.20133V6.02779C6.91176 6.53197 7.32051 6.94042 7.82499 6.94042ZM12.3912 4.50511H9.34703V5.72275H12.3912V4.50511ZM13.9132 6.94042C14.4177 6.94042 14.8265 6.53197 14.8265 6.02779V4.20133C14.8265 3.69654 14.4177 3.28748 13.9132 3.28748C13.4088 3.28748 13 3.69654 13 4.20133V6.02779C13 6.53197 13.4088 6.94042 13.9132 6.94042ZM4.47643 19.7259V6.33222C4.47643 5.9957 4.74901 5.72278 5.08522 5.72278H6.30289V4.50514H5.08522C4.07627 4.50514 3.25879 5.32265 3.25879 6.33222V19.7259C3.25879 20.7349 4.07627 21.5523 5.08522 21.5523H8.73824V20.3347H5.08522C4.74901 20.3347 4.47643 20.0624 4.47643 19.7259ZM6.91176 10.5935H14.8265C15.1627 10.5935 15.4353 10.3212 15.4353 9.98462C15.4353 9.64872 15.1627 9.37582 14.8265 9.37582H6.91176C6.57554 9.37582 6.30289 9.64872 6.30289 9.98462C6.30289 10.3211 6.57554 10.5935 6.91176 10.5935ZM8.73824 13.6376H6.91176C6.57554 13.6376 6.30289 13.9105 6.30289 14.247C6.30289 14.5823 6.57554 14.8551 6.91176 14.8551H8.73824C9.07445 14.8551 9.34703 14.5823 9.34703 14.247C9.34703 13.9105 9.07443 13.6376 8.73824 13.6376ZM22.7166 16.9273C22.5303 16.4261 22.244 16.0877 21.6345 16.1567C21.5447 16.1663 21.3845 15.9819 21.3355 15.8571C21.0456 15.1097 20.7703 14.3564 20.5075 13.5983C20.3423 13.1185 20.0075 12.8041 19.5449 12.6762C18.9195 12.5026 18.2753 12.3974 17.6394 12.2624C16.7104 12.1244 15.8708 12.1197 14.8544 12.2624C14.4927 12.3182 14.1282 12.3634 13.7685 12.4324C12.8127 12.6168 12.0645 13.0335 11.7916 14.0698C11.6287 14.6858 11.3843 15.2827 11.1563 15.8797C11.112 15.995 10.9633 16.1674 10.8825 16.1567C10.2154 16.0723 9.955 16.4802 9.77689 17.0093C9.74446 17.1319 9.76291 17.2443 9.77689 17.3364C10.0334 17.4041 10.2891 17.472 10.4695 17.5195C10.4568 18.4863 10.4425 19.4458 10.433 20.4054C10.428 20.9228 10.4075 21.4413 10.4428 21.9561C10.4601 22.1939 10.5484 22.5638 10.678 22.6552C10.7737 22.7837 12.4875 22.779 12.8074 22.6552C12.9539 22.5994 13.0264 21.8449 13.148 21.396H19.4292C19.5836 21.8205 19.2881 22.3438 19.7684 22.6552C19.912 22.7552 21.7612 22.7617 21.844 22.619C21.9318 22.5638 22.0581 22.2248 22.0621 22.006C22.0864 20.7848 22.0793 19.5624 22.0691 18.34C22.0676 18.0725 22.0081 17.8044 21.9751 17.5409C22.2085 17.4767 22.4624 17.4065 22.7162 17.3364C22.7362 17.234 22.7609 17.0807 22.7166 16.9273ZM13.646 19.1152C13.5955 19.252 13.3933 19.3817 13.234 19.4184C13.0146 19.4702 12.7714 19.4779 12.5405 19.4779C12.5401 19.4821 12.5398 19.4863 12.5405 19.4779C12.5403 19.4779 12.5402 19.4779 12.5401 19.4779C12.2028 19.4429 11.8599 19.4339 11.5297 19.3649C11.1004 19.2752 10.9797 18.9546 11.109 18.381C11.1976 17.988 11.5047 17.9708 11.7797 18.0617C12.3327 18.243 12.8743 18.4647 13.4017 18.7097C13.5283 18.7681 13.6817 19.0178 13.646 19.1152ZM11.986 16.3553C12.3029 15.4659 12.5767 14.643 12.898 13.8404C12.9593 13.6858 13.1956 13.5502 13.3749 13.5068C13.8101 13.4028 14.2602 13.2981 14.7034 13.3016C16.0501 13.3112 17.3971 13.3599 18.7432 13.4206C19.2958 13.445 19.6665 13.7273 19.8214 14.3004C20.0019 14.9687 20.2412 15.6204 20.4792 16.3553C17.6408 16.9677 14.8735 16.9535 11.986 16.3553ZM21.0435 19.3454C20.6892 19.428 20.3197 19.4411 20.0217 19.4768C19.6811 19.4488 19.4046 19.4542 19.1421 19.3971C18.8145 19.3258 18.7113 18.9393 18.9991 18.799C19.6258 18.4946 20.2876 18.2507 20.9537 18.0445C21.2204 17.9618 21.4044 18.1842 21.4136 18.4803C21.4252 18.8263 21.5271 19.2342 21.0435 19.3454ZM12.5401 19.4779C12.541 19.4702 12.5404 19.4743 12.5401 19.4779Z" fill="rgb(132,128,128)"/>
</svg>
