<svg width="19" height="21" viewBox="0 0 19 21" fill="none" xmlns="http://www.w3.org/2000/svg">
<path d="M4.29167 14.6251H11.5833V16.7084H4.29167V14.6251ZM4.29167 10.4584H14.7083V12.5417H4.29167V10.4584ZM4.29167 6.29175H14.7083V8.37508H4.29167V6.29175ZM16.7917 2.12508H12.4375C12 0.916748 10.8542 0.041748 9.5 0.041748C8.14583 0.041748 7 0.916748 6.5625 2.12508H2.20833C2.0625 2.12508 1.92708 2.1355 1.79167 2.16675C1.38542 2.25008 1.02083 2.45841 0.739583 2.73966C0.552083 2.92716 0.395833 3.15633 0.291667 3.40633C0.1875 3.64592 0.125 3.91675 0.125 4.20842V18.7917C0.125 19.073 0.1875 19.3542 0.291667 19.6042C0.395833 19.8542 0.552083 20.073 0.739583 20.2709C1.02083 20.5522 1.38542 20.7605 1.79167 20.8438C1.92708 20.8647 2.0625 20.8751 2.20833 20.8751H16.7917C17.9375 20.8751 18.875 19.9376 18.875 18.7917V4.20842C18.875 3.06258 17.9375 2.12508 16.7917 2.12508ZM9.5 1.86466C9.92708 1.86466 10.2812 2.21883 10.2812 2.64592C10.2812 3.073 9.92708 3.42717 9.5 3.42717C9.07292 3.42717 8.71875 3.073 8.71875 2.64592C8.71875 2.21883 9.07292 1.86466 9.5 1.86466ZM16.7917 18.7917H2.20833V4.20842H16.7917V18.7917Z" fill="white"/>
</svg>
