<svg width="24" height="27" viewBox="0 0 24 27" fill="none" xmlns="http://www.w3.org/2000/svg">
<path d="M17.0278 4.5384C17.334 4.71226 17.6966 4.75796 18.0363 4.66552C18.3761 4.57308 18.6656 4.35 18.8415 4.04496C18.9871 3.78805 19.2138 3.58672 19.4861 3.47255C19.7585 3.35838 20.061 3.33782 20.3462 3.41409C20.6315 3.49037 20.8834 3.65916 21.0624 3.89401C21.2414 4.12886 21.3374 4.41648 21.3353 4.71177C21.3353 5.06546 21.1948 5.40467 20.9447 5.65477C20.6946 5.90487 20.3554 6.04538 20.0017 6.04538C19.648 6.04538 19.3088 6.18588 19.0587 6.43598C18.8086 6.68608 18.6681 7.02529 18.6681 7.37899C18.6681 7.73268 18.8086 8.07189 19.0587 8.32199C19.3088 8.57209 19.648 8.7126 20.0017 8.7126C20.7039 8.71215 21.3936 8.5269 22.0015 8.17547C22.6094 7.82403 23.1142 7.31879 23.465 6.71052C23.8158 6.10224 24.0003 5.41235 24 4.71017C23.9997 4.00798 23.8146 3.31824 23.4633 2.71024C23.1121 2.10225 22.6069 1.59741 21.9988 1.24647C21.3906 0.895521 20.7007 0.710825 19.9985 0.710938C19.2963 0.71105 18.6066 0.895967 17.9985 1.24711C17.3904 1.59825 16.8854 2.10324 16.5343 2.71135C16.4462 2.86356 16.389 3.03171 16.3661 3.20612C16.3431 3.38053 16.355 3.55775 16.4008 3.72757C16.4467 3.89739 16.5257 4.05646 16.6333 4.19562C16.7409 4.33478 16.875 4.45127 17.0278 4.5384ZM22.7623 14.047C22.4122 14.0016 22.0584 14.0968 21.7785 14.3118C21.4985 14.5268 21.3152 14.844 21.2687 15.1939C20.9888 17.4546 19.892 19.535 18.1849 21.0432C16.4777 22.5513 14.278 23.3833 12.0001 23.3823H4.54519L5.41204 22.5155C5.66043 22.2656 5.79984 21.9276 5.79984 21.5753C5.79984 21.2229 5.66043 20.8849 5.41204 20.6351C4.1117 19.3296 3.22677 17.6686 2.8687 15.8611C2.51064 14.0537 2.69546 12.1807 3.39989 10.4781C4.10431 8.77547 5.29684 7.3194 6.82725 6.29328C8.35766 5.26716 10.1575 4.71689 12.0001 4.71177C12.3538 4.71177 12.693 4.57126 12.9431 4.32116C13.1932 4.07106 13.3337 3.73185 13.3337 3.37816C13.3337 3.02446 13.1932 2.68525 12.9431 2.43515C12.693 2.18505 12.3538 2.04455 12.0001 2.04455C9.74525 2.05395 7.53867 2.69833 5.63315 3.90386C3.72762 5.10939 2.20022 6.8273 1.22592 8.86079C0.251628 10.8943 -0.130147 13.1611 0.124335 15.4015C0.378817 17.642 1.25926 19.7654 2.6648 21.5286L0.384328 23.7691C0.19928 23.9566 0.0739253 24.1947 0.0240828 24.4535C-0.0257597 24.7122 0.00214297 24.9798 0.10427 25.2227C0.204318 25.4662 0.374217 25.6747 0.592556 25.8219C0.810895 25.969 1.0679 26.0482 1.33119 26.0495H12.0001C14.9226 26.0499 17.7449 24.984 19.9375 23.0517C22.1301 21.1194 23.5423 18.4534 23.9092 15.554C23.9336 15.3797 23.9232 15.2022 23.8787 15.0319C23.8341 14.8615 23.7563 14.7017 23.6497 14.5616C23.5431 14.4215 23.4098 14.3039 23.2575 14.2156C23.1051 14.1273 22.9369 14.07 22.7623 14.047ZM20.5085 10.1396C20.2657 10.0321 19.9964 9.99964 19.735 10.0462L19.495 10.1262L19.2549 10.2463L19.0549 10.4196C18.9349 10.5425 18.8398 10.6874 18.7748 10.8464C18.696 11.0127 18.6593 11.1959 18.6681 11.3798C18.6642 11.5577 18.696 11.7345 18.7615 11.8999C18.8305 12.06 18.9301 12.205 19.0549 12.3267C19.1795 12.4503 19.3273 12.5481 19.4898 12.6144C19.6522 12.6808 19.8262 12.7144 20.0017 12.7134C20.3554 12.7134 20.6946 12.5729 20.9447 12.3228C21.1948 12.0727 21.3353 11.7335 21.3353 11.3798C21.3399 11.2049 21.3033 11.0313 21.2287 10.873C21.0854 10.5526 20.829 10.2962 20.5085 10.1529V10.1396Z" fill="white"/>
</svg>
