<svg width="32" height="40" viewBox="0 0 32 40" fill="none" xmlns="http://www.w3.org/2000/svg">
<path d="M19.6999 17.9157V17.1402C21.5226 17.1402 22.3369 15.9768 22.3369 14.8212C22.3369 13.7043 20.4135 13.5725 20.398 13.5725V12.7969C20.9331 12.7969 23.1125 13.1536 23.1125 14.8212C23.1125 15.651 22.7945 16.4189 22.2283 16.9773C21.6001 17.59 20.7315 17.9157 19.6999 17.9157ZM6.35984 17.9157C5.32832 17.9157 4.45966 17.59 3.83143 16.9773C3.2575 16.4189 2.94727 15.651 2.94727 14.8212C2.94727 13.1536 5.12666 12.7969 5.66182 12.7969V13.5725C5.63855 13.5725 3.72285 13.7043 3.72285 14.8212C3.72285 15.9768 4.53722 17.1402 6.35984 17.1402V17.9157Z" fill="white"/>
<path d="M6.2994 15.9839L4.58301 14.2344L4.02937 14.7775L5.74576 16.527L6.2994 15.9839Z" fill="white"/>
<path d="M22.0288 14.7755L21.4751 14.2324L19.7588 15.982L20.3125 16.5251L22.0288 14.7755Z" fill="white"/>
<path d="M8.10502 12.5109L7.70947 11.8439C8.11278 11.6034 8.76427 11.3242 9.60966 11.3242C9.61741 11.3242 9.62517 11.3242 9.63293 11.3242C10.4706 11.332 11.1143 11.6112 11.5176 11.8439L11.1221 12.5109C10.8041 12.3247 10.2922 12.0998 9.63293 12.0998C9.62517 12.0998 9.61742 12.0998 9.61742 12.0998C8.95041 12.0998 8.43077 12.3247 8.10502 12.5109Z" fill="white"/>
<path d="M9.77266 14.0391H8.99707V15.4351H9.77266V14.0391Z" fill="white"/>
<path d="M10.238 14.0391H9.4624V15.4351H10.238V14.0391Z" fill="white"/>
<path d="M10.8813 14.8533C10.8037 14.8223 10.7262 14.7835 10.6331 14.737C10.3927 14.6051 10.0592 14.4267 9.63258 14.4267H9.62482C9.22152 14.4267 8.81046 14.5663 8.44593 14.8223L7.99609 14.1863C8.49247 13.8373 9.05089 13.6511 9.60931 13.6511C9.61707 13.6511 9.61707 13.6511 9.62482 13.6511C10.253 13.6511 10.7184 13.8993 10.9976 14.0467C11.0519 14.0777 11.1217 14.1087 11.145 14.1165L10.8813 14.8533ZM17.9546 12.511C17.6289 12.3249 17.1015 12.0922 16.4267 12.1C15.7597 12.1 15.2478 12.3249 14.9376 12.511L14.542 11.844C14.9376 11.6113 15.5891 11.3321 16.4267 11.3244C17.2799 11.3166 17.9469 11.6036 18.3502 11.844L17.9546 12.511Z" fill="white"/>
<path d="M17.0632 14.0391H16.2876V15.4351H17.0632V14.0391Z" fill="white"/>
<path d="M16.5974 14.0391H15.8218V15.4351H16.5974V14.0391Z" fill="white"/>
<path d="M15.1781 14.8525L14.9144 14.1234C14.9376 14.1157 15.0074 14.0769 15.0617 14.0536C15.3409 13.9063 15.8063 13.6581 16.4345 13.6581C16.4423 13.6581 16.4423 13.6581 16.45 13.6581C17.0162 13.6658 17.5746 13.8442 18.0633 14.1932L17.6134 14.8292C17.2489 14.5733 16.8456 14.4337 16.4345 14.4337C16.0002 14.4259 15.6667 14.612 15.4185 14.7439C15.3332 14.7827 15.2556 14.8215 15.1781 14.8525ZM21.9489 10.3153C21.8559 10.3153 21.7706 10.2843 21.693 10.2222C21.6697 10.199 18.9474 7.94976 13.0297 7.94976C7.11198 7.94976 4.38967 10.199 4.35865 10.2222C4.24231 10.3231 4.07944 10.3386 3.94759 10.2765C3.80798 10.2145 3.72267 10.0749 3.72267 9.9275V7.74811C3.09444 7.46889 1.55103 6.60799 1.55103 5.00253C1.55103 3.94773 2.84625 2.71455 5.02565 1.69853C6.37517 1.06255 9.22157 0 13.0297 0C16.8378 0 19.6842 1.06255 21.0338 1.69853C23.2054 2.71455 24.5084 3.94773 24.5084 5.00253C24.5084 6.60799 22.965 7.46114 22.3367 7.74811V9.9275C22.3367 10.0826 22.2514 10.2145 22.1118 10.2765C22.0575 10.3075 22.0032 10.3153 21.9489 10.3153ZM13.0297 7.17417C17.66 7.17417 20.4055 8.47716 21.5611 9.18294V7.48441C21.5611 7.32153 21.662 7.17417 21.8171 7.11988C21.8326 7.11212 23.7328 6.42185 23.7328 5.00253C23.7328 4.4286 22.7866 3.3738 20.708 2.40432C19.4128 1.79936 16.6827 0.775586 13.0297 0.775586C9.37669 0.775586 6.64663 1.7916 5.3514 2.40432C3.27283 3.3738 2.32661 4.4286 2.32661 5.00253C2.32661 6.18142 3.62184 6.85618 4.07944 7.05008C4.90931 6.58473 8.6011 4.65352 13.0297 4.65352C16.0778 4.65352 18.8156 5.58422 20.5762 6.36756L20.2582 7.07334C18.5674 6.32103 15.9381 5.4291 13.0297 5.4291C8.88807 5.4291 5.33589 7.24397 4.49825 7.70933V9.18294C5.65388 8.47716 8.39945 7.17417 13.0297 7.17417Z" fill="white"/>
<path d="M13.0301 11.0912C6.90297 11.0912 5.11912 9.50127 5.04932 9.43922L5.57672 8.87305C5.59223 8.8808 7.27525 10.3234 13.0301 10.3234C18.7694 10.3234 20.468 8.88856 20.4835 8.87305L21.0109 9.43922C20.9411 9.50127 19.1572 11.0912 13.0301 11.0912Z" fill="white"/>
<path d="M5.66162 13.5721C5.58406 13.5721 5.5065 13.5489 5.44446 13.5023C5.37465 13.4558 3.72266 12.3157 3.72266 9.92688H4.49824C4.49824 11.2454 5.1032 12.1063 5.51426 12.5406L6.66213 9.8183L7.37567 10.1208L6.01839 13.3395C5.97186 13.448 5.88654 13.5256 5.7702 13.5644C5.73918 13.5644 5.7004 13.5721 5.66162 13.5721ZM20.3978 13.5721C20.359 13.5721 20.3202 13.5644 20.2892 13.5566C20.1806 13.5256 20.0875 13.4403 20.041 13.3317L18.6837 10.113L19.3973 9.81055L20.5451 12.5329C20.9562 12.1063 21.5611 11.2454 21.5611 9.91913H22.3367C22.3367 12.3079 20.6847 13.448 20.6149 13.4946C20.5529 13.5489 20.4753 13.5721 20.3978 13.5721ZM15.3564 29.5492C15.2556 29.5492 15.1626 29.5104 15.0927 29.4484L13.0297 27.5172L10.9666 29.4406C10.8736 29.5259 10.7417 29.5647 10.6176 29.5337C10.4935 29.5027 10.3927 29.4174 10.3384 29.301L9.01991 25.9583C8.95786 25.8031 9.0044 25.6247 9.13625 25.5162L10.4547 24.4381C10.6099 24.314 10.827 24.3218 10.9666 24.4614L13.0297 26.4469L15.085 24.4614C15.2246 24.3218 15.4495 24.314 15.5969 24.4381L16.9154 25.5162C17.0472 25.6247 17.0938 25.8031 17.0317 25.9583L15.7132 29.301C15.6667 29.4174 15.5659 29.5104 15.434 29.5337C15.4107 29.5492 15.3875 29.5492 15.3564 29.5492ZM13.5959 26.982L15.2091 28.4867L16.2173 25.935L15.3875 25.2525L13.5959 26.982ZM9.84979 25.9427L10.858 28.4944L12.4713 26.9898L10.6874 25.268L9.84979 25.9427Z" fill="white"/>
<path d="M13.0144 35.4443C12.8515 35.3668 12.7119 35.328 12.6499 35.1806L9.02014 25.9744L9.74144 25.6874L13.0144 33.9707L16.3106 25.6797L17.0319 25.9667L13.3712 35.1806C13.3169 35.328 13.1695 35.4443 13.0144 35.4443Z" fill="white"/>
<path d="M13.0143 35.4452C12.8514 35.3677 12.7118 35.3289 12.6498 35.1815L11.3856 31.9628C11.3623 31.9008 11.3545 31.831 11.3623 31.7612L11.7423 29.0466L11.4321 28.3098C11.37 28.1625 11.4088 27.9841 11.5252 27.8755L12.7661 26.7121C12.9135 26.5725 13.1461 26.5725 13.2935 26.7121L14.5344 27.8755C14.6508 27.9841 14.6895 28.1625 14.6275 28.3098L14.3173 29.0466L14.6895 31.7224C14.6973 31.7922 14.6895 31.8543 14.6663 31.9163L13.3711 35.1815C13.3168 35.3289 13.1694 35.4452 13.0143 35.4452ZM12.1456 31.7612L13.0143 33.9716L13.9062 31.7224L13.5339 29.0466C13.5262 28.9768 13.5339 28.907 13.5572 28.845L13.8054 28.2633L13.0298 27.5342L12.2542 28.2633L12.5024 28.845C12.5257 28.907 12.5412 28.9768 12.5257 29.0466L12.1456 31.7612Z" fill="white"/>
<path d="M11.3236 39.7095C11.2383 39.7095 11.153 39.6863 11.0832 39.632C10.9436 39.5234 10.897 39.345 10.9591 39.1821L12.6499 34.8776L13.3712 35.1646L12.1768 38.2204L15.6514 35.6687L16.109 36.297L11.5563 39.632C11.4865 39.6863 11.4012 39.7095 11.3236 39.7095ZM17.0319 33.9159L16.3029 30.6662C16.2719 30.5344 16.3106 30.4025 16.4115 30.3017C16.5045 30.2086 16.6441 30.1698 16.776 30.2008L18.1643 30.5266V26.6797H18.9399V31.023C18.9399 31.1393 18.8856 31.2556 18.7925 31.3254C18.6994 31.3953 18.5753 31.4263 18.459 31.3953L17.2026 31.1005L17.7998 33.7453L17.0319 33.9159Z" fill="white"/>
<path d="M11.859 37.6931L8.22151 35.0328C8.09741 34.9397 8.03537 34.7846 8.07415 34.6373L8.86524 31.1083L7.60879 31.4031C7.49246 31.4341 7.36836 31.4031 7.27529 31.3333C7.18222 31.2635 7.12793 31.1471 7.12793 31.0308V26.6875H7.90352V30.5422L9.29182 30.2164C9.42367 30.1854 9.55551 30.2242 9.65634 30.3172C9.74941 30.4103 9.78819 30.5499 9.76492 30.6818L8.88851 34.5675L12.3166 37.0804L11.859 37.6931ZM30.6359 39.7096H29.0848C28.8676 39.7096 28.697 39.539 28.697 39.3218C28.697 36.1109 26.091 33.5049 22.8801 33.5049C19.6692 33.5049 17.0632 36.1109 17.0632 39.3218C17.0632 39.539 16.8926 39.7096 16.6754 39.7096H15.1242C14.9071 39.7096 14.7364 39.539 14.7364 39.3218C14.7364 34.8312 18.3894 31.1781 22.8801 31.1781C27.3707 31.1781 31.0237 34.8312 31.0237 39.3218C31.0237 39.539 30.8531 39.7096 30.6359 39.7096ZM29.4648 38.934H30.2404C30.0387 35.0483 26.8123 31.9537 22.8801 31.9537C18.9479 31.9537 15.7214 35.0483 15.5198 38.934H16.2954C16.497 35.4826 19.3744 32.7293 22.8801 32.7293C26.3857 32.7293 29.2632 35.4826 29.4648 38.934Z" fill="white"/>
<path d="M25.6717 39.7103H20.0875C19.8703 39.7103 19.6997 39.5396 19.6997 39.3225V36.5304C19.6997 36.3132 19.8703 36.1426 20.0875 36.1426H25.6717C25.8889 36.1426 26.0595 36.3132 26.0595 36.5304V39.3225C26.0595 39.5396 25.8889 39.7103 25.6717 39.7103ZM20.4753 38.9347H25.2839V36.9182H20.4753V38.9347Z" fill="white"/>
<path d="M27.5386 35.2125L26.9902 34.6641L25.3942 36.2599L25.9426 36.8083L27.5386 35.2125Z" fill="white"/>
<path d="M20.3649 36.2561L18.769 34.6602L18.2206 35.2086L19.8165 36.8045L20.3649 36.2561Z" fill="white"/>
<path d="M28.67 36.8746L28.1216 36.3262L25.3957 39.0516L25.9441 39.6001L28.67 36.8746Z" fill="white"/>
<path d="M20.3612 39.0422L17.6082 36.2891L17.0597 36.8375L19.8128 39.5906L20.3612 39.0422Z" fill="white"/>
<path d="M3.7133 34.19L2.55811 29.0918L1.80169 29.2632L2.95689 34.3614L3.7133 34.19Z" fill="white"/>
<path d="M13.0379 20.8642C11.4169 20.8642 10.7577 19.8559 10.6336 19.3208C10.6103 19.2044 10.6336 19.0881 10.7112 18.995C10.781 18.9019 10.8973 18.8477 11.0136 18.8477H15.0467C15.163 18.8477 15.2716 18.9019 15.3492 18.995C15.419 19.0881 15.45 19.2044 15.4267 19.3208C15.3104 19.8559 14.6589 20.8642 13.0379 20.8642ZM11.6884 19.6232C11.9211 19.8559 12.3321 20.0886 13.0379 20.0886C13.7437 20.0886 14.147 19.8559 14.3797 19.6232H11.6884Z" fill="white"/>
<path d="M14.2707 24.2763H11.7888C11.7268 24.2763 11.657 24.2607 11.6027 24.2297C11.4709 24.1522 8.27544 22.3683 7.20513 20.8249C5.63069 18.5524 5.28944 13.4258 5.27393 13.2086L6.04951 13.1621C6.04951 13.2164 6.39077 18.2887 7.84112 20.3828C8.71753 21.647 11.3778 23.2059 11.8897 23.5007H14.1621C14.6973 23.1827 17.4274 21.4919 18.2185 20.3828C19.6921 18.3042 20.0023 13.2164 20.0101 13.1621L20.7856 13.2086C20.7701 13.4258 20.4521 18.5757 18.8544 20.8327C17.885 22.1977 14.612 24.1444 14.4724 24.222C14.4103 24.2607 14.3405 24.2763 14.2707 24.2763Z" fill="white"/>
<path d="M15.7443 23.2051H14.9688V24.7407H15.7443V23.2051Z" fill="white"/>
<path d="M26.0597 32.0865H25.2841V31.9934C25.2841 30.9463 24.6714 29.9769 23.7174 29.5348L16.5122 26.1765L16.838 25.4707L24.0432 28.829C25.2686 29.4029 26.0597 30.6439 26.0597 31.9934V32.0865ZM15.1239 39.7105H0.387793C0.170629 39.7105 0 39.5398 0 39.3227V31.9934C0 30.6439 0.791098 29.4029 2.01652 28.829L9.20621 25.4785L9.53195 26.1842L2.34227 29.5348C1.3883 29.9769 0.775586 30.9386 0.775586 31.9934V38.9349H15.1239V39.7105Z" fill="white"/>
<path d="M11.091 23.2363H10.3154V24.741H11.091V23.2363Z" fill="white"/>
</svg>
