<svg width="19" height="27" viewBox="0 0 19 27" fill="none" xmlns="http://www.w3.org/2000/svg">
<path d="M14.6823 4.16602H4.31871C4.08966 4.16602 3.86999 4.25701 3.70803 4.41897C3.54607 4.58093 3.45508 4.8006 3.45508 5.02965C3.45508 5.2587 3.54607 5.47837 3.70803 5.64033C3.86999 5.8023 4.08966 5.89329 4.31871 5.89329H14.6823C14.9114 5.89329 15.1311 5.8023 15.293 5.64033C15.455 5.47837 15.546 5.2587 15.546 5.02965C15.546 4.8006 15.455 4.58093 15.293 4.41897C15.1311 4.25701 14.9114 4.16602 14.6823 4.16602ZM14.6823 7.62056H4.31871C4.08966 7.62056 3.86999 7.71155 3.70803 7.87351C3.54607 8.03547 3.45508 8.25514 3.45508 8.48419C3.45508 8.71324 3.54607 8.93291 3.70803 9.09487C3.86999 9.25684 4.08966 9.34783 4.31871 9.34783H14.6823C14.9114 9.34783 15.1311 9.25684 15.293 9.09487C15.455 8.93291 15.546 8.71324 15.546 8.48419C15.546 8.25514 15.455 8.03547 15.293 7.87351C15.1311 7.71155 14.9114 7.62056 14.6823 7.62056Z" fill="white"/>
<path d="M0.863635 26.62C1.07356 26.6197 1.27619 26.5429 1.43363 26.4041L4.24909 25.0223L6.42545 26.4732C6.56646 26.566 6.7316 26.6155 6.90045 26.6155C7.06929 26.6155 7.23443 26.566 7.37544 26.4732L9.49999 25.0914L11.6159 26.4732C11.7569 26.566 11.922 26.6155 12.0909 26.6155C12.2597 26.6155 12.4249 26.566 12.5659 26.4732L14.7423 25.0223L17.5577 26.4041C17.6821 26.5164 17.8365 26.5901 18.0021 26.6161C18.1677 26.6422 18.3373 26.6195 18.4902 26.5508C18.6431 26.4821 18.7727 26.3705 18.8632 26.2294C18.9537 26.0883 19.0013 25.924 19 25.7564V7.62002C19 7.39097 18.909 7.1713 18.747 7.00934C18.5851 6.84737 18.3654 6.75638 18.1363 6.75638C17.9073 6.75638 17.6876 6.84737 17.5257 7.00934C17.3637 7.1713 17.2727 7.39097 17.2727 7.62002V24.34L15.0618 23.2518C14.9253 23.185 14.7735 23.1554 14.6219 23.166C14.4702 23.1766 14.3241 23.2271 14.1982 23.3123L12.0909 24.72L9.98362 23.3382C9.84353 23.2471 9.68003 23.1986 9.51294 23.1986C9.34585 23.1986 9.18235 23.2471 9.04226 23.3382L6.90908 24.72L4.79318 23.3123C4.66728 23.2271 4.52112 23.1766 4.36948 23.166C4.21784 23.1554 4.06608 23.185 3.92954 23.2518L1.72727 24.34V2.43821H17.2727V4.16548C17.2727 4.39453 17.3637 4.6142 17.5257 4.77616C17.6876 4.93812 17.9073 5.02911 18.1363 5.02911C18.3654 5.02911 18.5851 4.93812 18.747 4.77616C18.909 4.6142 19 4.39453 19 4.16548V1.57457C19 1.34552 18.909 1.12585 18.747 0.96389C18.5851 0.801927 18.3654 0.710938 18.1363 0.710938H0.863635C0.634585 0.710938 0.414916 0.801927 0.252953 0.96389C0.0909901 1.12585 0 1.34552 0 1.57457V25.7564C0 25.9854 0.0909901 26.2051 0.252953 26.367C0.414916 26.529 0.634585 26.62 0.863635 26.62Z" fill="white"/>
</svg>
