<svg width="29" height="30" viewBox="0 0 29 30" fill="none" xmlns="http://www.w3.org/2000/svg">
<path d="M11.4792 12.19H0.604167C0.270667 12.19 0 11.9193 0 11.5858V6.45038C0 3.89838 1.7986 1.63095 4.37417 0.937362C5.41213 0.642529 6.58904 0.633467 7.65117 0.922862C7.68681 0.928904 7.72185 0.937967 7.75629 0.95005C8.71571 1.21588 9.59477 1.7113 10.301 2.38434C11.449 3.46157 12.0833 4.90674 12.0833 6.45038V11.5858C12.0833 11.9193 11.8127 12.19 11.4792 12.19ZM1.20833 10.9816H10.875V6.45038C10.875 5.24386 10.376 4.11165 9.47031 3.26159C8.9036 2.72086 8.19975 2.32574 7.43004 2.11307C7.41373 2.11005 7.39742 2.10582 7.38171 2.10159C6.5105 1.85449 5.55833 1.85751 4.69619 2.10159C2.6396 2.65622 1.20833 4.44334 1.20833 6.45038V10.9816Z" fill="white"/>
<path d="M7.85417 12.1901H4.22917C3.89567 12.1901 3.625 11.9194 3.625 11.5859V6.45049C3.625 4.60899 4.08537 2.87987 4.8569 1.8256C5.11004 1.4782 5.39702 1.20451 5.70817 1.0142C5.84229 0.925993 6.00904 0.892159 6.17338 0.928409C6.25131 0.94593 6.32321 0.978555 6.38604 1.02266C6.88025 1.32414 7.32069 1.85399 7.66144 2.55845C8.17498 3.60245 8.45833 4.98539 8.45833 6.45049V11.5859C8.45833 11.9194 8.18767 12.1901 7.85417 12.1901ZM4.83333 10.9817H7.25V6.45049C7.25 5.18537 7.0041 3.95951 6.57575 3.0877C6.41625 2.75783 6.23319 2.48535 6.04167 2.28778C5.97038 2.36089 5.9009 2.44487 5.83323 2.53791C5.21577 3.38133 4.83333 4.88026 4.83333 6.45049V10.9817ZM28.3958 29.7109H0.604167C0.270667 29.7109 0 29.4408 0 29.1067V24.2734C0 23.9393 0.270667 23.6692 0.604167 23.6692H28.3958C28.7299 23.6692 29 23.9393 29 24.2734V29.1067C29 29.4408 28.7299 29.7109 28.3958 29.7109ZM1.20833 28.5026H27.7917V24.8776H1.20833V28.5026Z" fill="white"/>
<path d="M6.04167 24.8776C5.70817 24.8776 5.4375 24.6075 5.4375 24.2734V12.1901C5.4375 11.8566 5.70817 11.5859 6.04167 11.5859C6.37517 11.5859 6.64583 11.8566 6.64583 12.1901V24.2734C6.64583 24.6075 6.37517 24.8776 6.04167 24.8776ZM14.5 17.0234C14.1665 17.0234 13.8958 16.7534 13.8958 16.4193C13.8958 15.42 13.0826 14.6068 12.0833 14.6068C11.084 14.6068 10.2708 15.42 10.2708 16.4193C10.2708 16.7534 10.0002 17.0234 9.66667 17.0234C9.33317 17.0234 9.0625 16.7534 9.0625 16.4193C9.0625 14.7536 10.4176 13.3984 12.0833 13.3984C13.749 13.3984 15.1042 14.7536 15.1042 16.4193C15.1042 16.7534 14.8335 17.0234 14.5 17.0234Z" fill="white"/>
<path d="M15.1038 17.0228H9.06217C8.72867 17.0228 8.45801 16.7527 8.45801 16.4186C8.45801 16.0845 8.72867 15.8145 9.06217 15.8145H15.1038C15.4379 15.8145 15.708 16.0845 15.708 16.4186C15.708 16.7527 15.4379 17.0228 15.1038 17.0228Z" fill="white"/>
<path d="M12.0837 20.0436C10.7509 20.0436 9.66699 18.9597 9.66699 17.627V16.4186C9.66699 16.0845 9.93766 15.8145 10.2712 15.8145H13.8962C14.2297 15.8145 14.5003 16.0845 14.5003 16.4186V17.627C14.5003 18.9597 13.4165 20.0436 12.0837 20.0436ZM10.8753 17.0228V17.627C10.8753 18.2933 11.4173 18.8353 12.0837 18.8353C12.7501 18.8353 13.292 18.2933 13.292 17.627V17.0228H10.8753Z" fill="white"/>
<path d="M15.7087 24.8776H8.45866C8.12516 24.8776 7.85449 24.6075 7.85449 24.2734V21.8568C7.85449 20.1911 9.20964 18.8359 10.8753 18.8359H13.292C14.9577 18.8359 16.3128 20.1911 16.3128 21.8568V24.2734C16.3128 24.6075 16.0428 24.8776 15.7087 24.8776ZM9.06283 23.6693H15.1045V21.8568C15.1045 20.8575 14.2913 20.0443 13.292 20.0443H10.8753C9.87603 20.0443 9.06283 20.8575 9.06283 21.8568V23.6693Z" fill="white"/>
<path d="M13.2913 24.877H10.8747C10.5412 24.877 10.2705 24.6069 10.2705 24.2728V21.8561C10.2705 21.522 10.5412 21.252 10.8747 21.252H13.2913C13.6248 21.252 13.8955 21.522 13.8955 21.8561V24.2728C13.8955 24.6069 13.6248 24.877 13.2913 24.877ZM11.4788 23.6686H12.6872V22.4603H11.4788V23.6686Z" fill="white"/>
<path d="M10.8747 23.0645C10.5412 23.0645 10.2705 22.7944 10.2705 22.4603V20.0436C10.2705 19.7095 10.5412 19.4395 10.8747 19.4395C11.2082 19.4395 11.4788 19.7095 11.4788 20.0436V22.4603C11.4788 22.7944 11.2082 23.0645 10.8747 23.0645ZM13.2913 23.0645C12.9578 23.0645 12.6872 22.7944 12.6872 22.4603V20.0436C12.6872 19.7095 12.9578 19.4395 13.2913 19.4395C13.6248 19.4395 13.8955 19.7095 13.8955 20.0436V22.4603C13.8955 22.7944 13.6248 23.0645 13.2913 23.0645ZM27.1872 24.877H18.1247C17.7906 24.877 17.5205 24.6069 17.5205 24.2728V21.8561C17.5205 21.522 17.7906 21.252 18.1247 21.252H27.1872C27.5213 21.252 27.7913 21.522 27.7913 21.8561V24.2728C27.7913 24.6069 27.5213 24.877 27.1872 24.877ZM18.7288 23.6686H26.583V22.4603H18.7288V23.6686ZM3.62467 27.2936C3.46155 27.2936 3.31051 27.2326 3.19572 27.1184C3.08092 27.0036 3.02051 26.8526 3.02051 26.6895C3.02051 26.5257 3.08697 26.3747 3.19572 26.2605C3.36488 26.0913 3.63072 26.037 3.85426 26.1336C3.9328 26.1638 3.99322 26.2061 4.05363 26.2605C4.16238 26.3747 4.22884 26.5324 4.22884 26.6895C4.22884 26.8526 4.16842 27.0036 4.05363 27.1184C3.93884 27.2326 3.7878 27.2936 3.62467 27.2936ZM25.3747 27.2936C25.2109 27.2936 25.0599 27.2326 24.9457 27.1184C24.8309 27.0036 24.7705 26.8526 24.7705 26.6895C24.7705 26.5324 24.8364 26.3747 24.9457 26.2605C25.1693 26.037 25.5801 26.037 25.8036 26.2605C25.9124 26.3747 25.9788 26.5257 25.9788 26.6895C25.9788 26.8526 25.9178 27.0036 25.8036 27.1184C25.7426 27.1728 25.6768 27.2151 25.6043 27.2513C25.5318 27.2809 25.4532 27.2936 25.3747 27.2936Z" fill="white"/>
<path d="M22.1491 22.4616H20.1432C19.9535 22.4616 19.7741 22.3722 19.6599 22.2199C19.069 21.4309 18.7295 20.1978 18.7295 18.8366C18.7295 18.4952 18.7543 18.1509 18.802 17.8149C19.0491 15.8997 19.9916 14.6074 21.1462 14.6074C22.3007 14.6074 23.2432 15.8997 23.4915 17.8228C23.5381 18.1509 23.5628 18.4952 23.5628 18.8366C23.5628 20.1978 23.2233 21.4309 22.6324 22.2199C22.5182 22.3722 22.3394 22.4616 22.1491 22.4616ZM20.4701 21.2533H21.8222C22.1545 20.6636 22.3545 19.7706 22.3545 18.8366C22.3545 18.552 22.3339 18.2663 22.2935 17.9859C22.111 16.5667 21.5105 15.8158 21.1462 15.8158C20.7818 15.8158 20.1813 16.5667 20.0001 17.9775C19.9584 18.2663 19.9378 18.552 19.9378 18.8366C19.9378 19.7706 20.1378 20.6636 20.4701 21.2533Z" fill="white"/>
<path d="M21.1463 19.4388C20.2969 19.4388 19.4849 19.0104 18.9187 18.2631C18.8233 18.1368 18.7804 17.9779 18.8009 17.8214C19.0492 15.8978 19.9917 14.6055 21.1463 14.6055C22.3009 14.6055 23.2434 15.8978 23.4917 17.8208C23.5116 17.9779 23.4693 18.1362 23.3739 18.2625C22.8078 19.0104 21.9958 19.4388 21.1463 19.4388ZM20.0389 17.7181C20.6702 18.3827 21.6224 18.3827 22.2537 17.7181C22.0369 16.4742 21.4871 15.8138 21.1463 15.8138C20.8056 15.8138 20.2558 16.4742 20.0389 17.7181Z" fill="white"/>
<path d="M25.7741 22.4616H23.7682C23.5785 22.4616 23.3991 22.3722 23.2849 22.2199C22.694 21.4309 22.3545 20.1978 22.3545 18.8366C22.3545 18.4952 22.3793 18.1509 22.427 17.8149C22.6741 15.8997 23.6166 14.6074 24.7712 14.6074C25.9257 14.6074 26.8682 15.8997 27.1165 17.8228C27.1631 18.1509 27.1878 18.4952 27.1878 18.8366C27.1878 20.1978 26.8483 21.4309 26.2574 22.2199C26.1432 22.3722 25.9644 22.4616 25.7741 22.4616ZM24.0951 21.2533H25.4472C25.7795 20.6636 25.9795 19.7706 25.9795 18.8366C25.9795 18.552 25.9589 18.2663 25.9185 17.9859C25.736 16.5667 25.1355 15.8158 24.7712 15.8158C24.4068 15.8158 23.8063 16.5667 23.6251 17.9775C23.5834 18.2663 23.5628 18.552 23.5628 18.8366C23.5628 19.7706 23.7628 20.6636 24.0951 21.2533Z" fill="white"/>
<path d="M24.7713 19.4388C23.9219 19.4388 23.1099 19.0104 22.5437 18.2631C22.4483 18.1368 22.4054 17.9779 22.4259 17.8214C22.6742 15.8978 23.6167 14.6055 24.7713 14.6055C25.9259 14.6055 26.8684 15.8978 27.1167 17.8208C27.1366 17.9779 27.0943 18.1362 26.9989 18.2625C26.4328 19.0104 25.6208 19.4388 24.7713 19.4388ZM23.6639 17.7181C24.2952 18.3827 25.2474 18.3827 25.8787 17.7181C25.6619 16.4742 25.1121 15.8138 24.7713 15.8138C24.4306 15.8138 23.8808 16.4742 23.6639 17.7181Z" fill="white"/>
</svg>
