<svg width="35" height="24" viewBox="0 0 35 24" fill="none" xmlns="http://www.w3.org/2000/svg">
<path d="M27.6117 14.8359C25.1221 14.8359 23.0967 16.8613 23.0967 19.3509C23.0967 21.8405 25.1221 23.8659 27.6117 23.8659C30.1013 23.8659 32.1267 21.8405 32.1267 19.3509C32.1267 16.8613 30.1013 14.8359 27.6117 14.8359ZM27.6117 21.627C26.3565 21.627 25.3356 20.6061 25.3356 19.3509C25.3356 18.0957 26.3569 17.0748 27.6117 17.0748C28.8666 17.0748 29.8878 18.0957 29.8878 19.3509C29.8878 20.6061 28.8669 21.627 27.6117 21.627ZM8.69367 14.8359C6.20407 14.8359 4.17871 16.8613 4.17871 19.3509C4.17871 21.8405 6.20407 23.8659 8.69367 23.8659C11.1833 23.8659 13.2086 21.8405 13.2086 19.3509C13.2086 16.8613 11.1833 14.8359 8.69367 14.8359ZM8.69367 21.627C7.43845 21.627 6.41756 20.6061 6.41756 19.3509C6.41756 18.0957 7.43886 17.0748 8.69367 17.0748C9.94855 17.0748 10.9698 18.0957 10.9698 19.3509C10.9698 20.6061 9.94889 21.627 8.69367 21.627Z" fill="white"/>
<path d="M21.9779 0.134766H2.68677C2.06846 0.134766 1.56738 0.635911 1.56738 1.25416C1.56738 1.87247 2.06853 2.37355 2.68677 2.37355H20.8585V19.3513C20.8585 19.9696 21.3597 20.4707 21.9779 20.4707C22.5966 20.4707 23.0973 19.9696 23.0973 19.3513V1.25416C23.0973 0.635911 22.5962 0.134766 21.9779 0.134766Z" fill="white"/>
<path d="M34.85 10.7674L31.5664 5.09568C31.468 4.92582 31.3267 4.7848 31.1566 4.68677C30.9865 4.58874 30.7937 4.53712 30.5974 4.53711H21.9779V6.77596H29.9518L32.7615 11.629V18.2312H31.0078V20.4701H33.8809C34.4992 20.4701 35.0003 19.9689 35.0003 19.3507V11.3282C35.0002 11.1313 34.9484 10.9379 34.85 10.7674ZM12.1271 18.2312H23.6944V20.4701H12.1271V18.2312ZM5.29873 18.2312H2.68677C2.06846 18.2312 1.56738 18.7324 1.56738 19.3506C1.56738 19.9689 2.06853 20.47 2.68677 20.47H5.29873C5.91705 20.47 6.41813 19.9689 6.41813 19.3506C6.41813 18.7323 5.91698 18.2312 5.29873 18.2312Z" fill="white"/>
<path d="M21.9775 10.2465H33.8802V12.4853H21.9775V10.2465ZM11.2685 6.25391H1.34302C0.72471 6.25391 0.223633 6.75505 0.223633 7.3733C0.223633 7.99154 0.724779 8.49269 1.34302 8.49269H11.2685C11.8868 8.49269 12.3879 7.99154 12.3879 7.3733C12.3879 6.75505 11.8868 6.25391 11.2685 6.25391Z" fill="white"/>
<path d="M5.23201 9.90389L2.69839 7.36993L5.23645 4.80308C5.67115 4.36319 5.66705 3.65457 5.2275 3.21987C4.7876 2.78517 4.07898 2.78927 3.64428 3.22883L0.323363 6.58707C-0.109491 7.02478 -0.107577 7.72998 0.327875 8.16543L3.64879 11.4863C3.75256 11.5905 3.8759 11.6731 4.01173 11.7294C4.14755 11.7857 4.29317 11.8146 4.4402 11.8143C4.72642 11.8143 5.01298 11.705 5.23201 11.4868C5.6693 11.0497 5.6693 10.3408 5.23201 9.90389ZM17.1641 11.1054H7.20138C6.58307 11.1054 6.08199 11.6065 6.08199 12.2248C6.08199 12.8431 6.58314 13.3442 7.20138 13.3442H17.1641C17.7825 13.3442 18.2835 12.8434 18.2835 12.2248C18.2836 11.6065 17.7825 11.1054 17.1641 11.1054Z" fill="white"/>
<path d="M18.1837 11.4367L14.8628 8.07843C14.4277 7.63888 13.7187 7.63478 13.2796 8.06948C12.8401 8.50418 12.836 9.21314 13.2707 9.65269L15.8087 12.2195L13.2751 14.7532C12.8381 15.1901 12.8381 15.8987 13.2751 16.336C13.379 16.4402 13.5024 16.5228 13.6383 16.579C13.7742 16.6353 13.9198 16.6642 14.0669 16.664C14.214 16.6643 14.3596 16.6354 14.4954 16.579C14.6313 16.5227 14.7546 16.44 14.8583 16.3357L18.1792 13.0152C18.6147 12.5796 18.6166 11.8747 18.1837 11.4367Z" fill="white"/>
</svg>
