<svg width="19" height="17" viewBox="0 0 19 17" fill="none" xmlns="http://www.w3.org/2000/svg">
<path d="M4.10686 0L3.92117 0.501366L1.78573 6.16803H1.55052C1.14083 6.17126 0.748785 6.33523 0.458791 6.62464C0.168797 6.91406 0.00404378 7.30577 0 7.71546V13.9021C0 14.7454 0.704078 15.451 1.54742 15.4526V17H3.09485V15.4526H15.4681V17H17.0155V15.4526H17.0217C17.8666 15.4526 18.5691 14.747 18.5691 13.9021V7.71546C18.5691 6.87056 17.8666 6.16803 17.0217 6.16803H16.7834L14.4653 0H4.10686ZM5.18078 1.54742H13.3914L15.1323 6.16803H3.43992L5.18078 1.54742ZM1.54742 7.71546H17.0217V13.9021H1.54742V7.71546ZM4.64227 9.25979C4.23187 9.25979 3.83828 9.42282 3.54808 9.71301C3.25788 10.0032 3.09485 10.3968 3.09485 10.8072C3.09485 11.2176 3.25788 11.6112 3.54808 11.9014C3.83828 12.1916 4.23187 12.3546 4.64227 12.3546C5.05267 12.3546 5.44627 12.1916 5.73647 11.9014C6.02666 11.6112 6.1897 11.2176 6.1897 10.8072C6.1897 10.3968 6.02666 10.0032 5.73647 9.71301C5.44627 9.42282 5.05267 9.25979 4.64227 9.25979ZM13.9268 9.25979C13.5164 9.25979 13.1228 9.42282 12.8326 9.71301C12.5424 10.0032 12.3794 10.3968 12.3794 10.8072C12.3794 11.2176 12.5424 11.6112 12.8326 11.9014C13.1228 12.1916 13.5164 12.3546 13.9268 12.3546C14.3372 12.3546 14.7308 12.1916 15.021 11.9014C15.3112 11.6112 15.4742 11.2176 15.4742 10.8072C15.4742 10.3968 15.3112 10.0032 15.021 9.71301C14.7308 9.42282 14.3372 9.25979 13.9268 9.25979Z" fill="white"/>
</svg>
