<svg width="30" height="25" viewBox="0 0 30 25" fill="none" xmlns="http://www.w3.org/2000/svg">
<path d="M29 18.7109H19C18.447 18.7109 18 19.1579 18 19.7109C18 20.2639 18.447 20.7109 19 20.7109H28C28 21.8139 27.103 22.7109 26 22.7109H4C2.897 22.7109 2 21.8139 2 20.7109H11C11.553 20.7109 12 20.2639 12 19.7109C12 19.1579 11.553 18.7109 11 18.7109H1C0.447 18.7109 0 19.1579 0 19.7109V20.7109C0 22.9169 1.794 24.7109 4 24.7109H26C28.206 24.7109 30 22.9169 30 20.7109V19.7109C30 19.1579 29.553 18.7109 29 18.7109ZM2 17.7109C2.553 17.7109 3 17.2639 3 16.7109V3.71094C3 3.15894 3.448 2.71094 4 2.71094H26C26.552 2.71094 27 3.15894 27 3.71094V16.7109C27 17.2639 27.447 17.7109 28 17.7109C28.553 17.7109 29 17.2639 29 16.7109V3.71094C29 2.05694 27.654 0.710938 26 0.710938H4C2.346 0.710938 1 2.05694 1 3.71094V16.7109C1 17.2639 1.447 17.7109 2 17.7109Z" fill="white"/>
<path d="M25 17.7109C25.553 17.7109 26 17.2639 26 16.7109V14.7109C26 14.1579 25.553 13.7109 25 13.7109H23.478C23.373 13.4129 23.252 13.1219 23.117 12.8379L24.193 11.7619C24.381 11.5739 24.486 11.3209 24.486 11.0549C24.486 10.7899 24.381 10.5349 24.193 10.3479L21.364 7.51894C20.988 7.14394 20.324 7.14394 19.95 7.51894L18.874 8.59494C18.59 8.45894 18.299 8.33894 18.001 8.23394V6.71094C18.001 6.15794 17.554 5.71094 17.001 5.71094H13.001C12.448 5.71094 12.001 6.15794 12.001 6.71094V8.23294C11.703 8.33794 11.412 8.45894 11.128 8.59394L10.052 7.51794C9.864 7.32994 9.611 7.22494 9.345 7.22494C9.079 7.22494 8.825 7.32994 8.638 7.51794L5.809 10.3469C5.621 10.5349 5.516 10.7889 5.516 11.0539C5.516 11.3199 5.621 11.5739 5.809 11.7609L6.885 12.8369C6.748 13.1219 6.628 13.4129 6.522 13.7109H5C4.447 13.7109 4 14.1579 4 14.7109V16.7109C4 17.2639 4.447 17.7109 5 17.7109C5.553 17.7109 6 17.2639 6 16.7109V15.7109H7.262C7.718 15.7109 8.116 15.4019 8.23 14.9609C8.395 14.3249 8.645 13.7209 8.975 13.1619C9.207 12.7689 9.145 12.2679 8.822 11.9459L7.929 11.0539L9.344 9.63894L10.236 10.5319C10.558 10.8549 11.06 10.9179 11.452 10.6849C12.011 10.3549 12.615 10.1049 13.251 9.93994C13.692 9.82594 14.001 9.42794 14.001 8.97194V7.71094H16.001V8.97294C16.001 9.42894 16.31 9.82694 16.751 9.94094C17.387 10.1059 17.991 10.3559 18.55 10.6859C18.943 10.9179 19.444 10.8559 19.766 10.5329L20.658 9.63994L22.073 11.0549L21.18 11.9469C20.857 12.2689 20.794 12.7699 21.027 13.1629C21.357 13.7219 21.607 14.3259 21.772 14.9619C21.886 15.4029 22.284 15.7119 22.74 15.7119H24V16.7119C24 17.2639 24.447 17.7109 25 17.7109Z" fill="white"/>
<path d="M15 10.7109C11.691 10.7109 9 13.4019 9 16.7109C9 17.2639 9.447 17.7109 10 17.7109C10.553 17.7109 11 17.2639 11 16.7109C11 14.5049 12.794 12.7109 15 12.7109C17.206 12.7109 19 14.5049 19 16.7109C19 17.2639 19.447 17.7109 20 17.7109C20.553 17.7109 21 17.2639 21 16.7109C21 13.4019 18.309 10.7109 15 10.7109Z" fill="white"/>
</svg>
