<svg width="29" height="24" viewBox="0 0 29 24" fill="none" xmlns="http://www.w3.org/2000/svg">
<path d="M19.9261 22.359V19.9933C19.9261 18.7384 19.4276 17.5349 18.5403 16.6476C17.653 15.7602 16.4495 15.2617 15.1946 15.2617H5.73153C4.47665 15.2617 3.27317 15.7602 2.38583 16.6476C1.4985 17.5349 1 18.7384 1 19.9933L1 22.359" stroke="white" stroke-width="2" stroke-linecap="round" stroke-linejoin="round"/>
<path d="M10.463 10.5295C13.0761 10.5295 15.1945 8.41109 15.1945 5.79794C15.1945 3.18479 13.0761 1.06641 10.463 1.06641C7.84983 1.06641 5.73145 3.18479 5.73145 5.79794C5.73145 8.41109 7.84983 10.5295 10.463 10.5295Z" stroke="white" stroke-width="2" stroke-linecap="round" stroke-linejoin="round"/>
<path d="M27.0233 22.3588V19.9931C27.0226 18.9447 26.6736 17.9263 26.0313 17.0977C25.389 16.2692 24.4898 15.6774 23.4747 15.4153M18.7432 1.2207C19.7609 1.48129 20.663 2.07321 21.3072 2.90313C21.9514 3.73305 22.3011 4.75377 22.3011 5.80438C22.3011 6.85498 21.9514 7.8757 21.3072 8.70562C20.663 9.53554 19.7609 10.1275 18.7432 10.3881" stroke="white" stroke-width="2" stroke-linecap="round" stroke-linejoin="round"/>
</svg>
