<svg width="30" height="24" viewBox="0 0 30 24" fill="none" xmlns="http://www.w3.org/2000/svg">
<path d="M21.805 2.375C21.805 2.01033 21.9857 1.66059 22.3074 1.40273C22.6291 1.14487 23.0655 1 23.5204 1H26.9514C27.4064 1 27.8427 1.14487 28.1644 1.40273C28.4861 1.66059 28.6669 2.01033 28.6669 2.375V7.875C28.6669 8.23967 28.4861 8.58941 28.1644 8.84727C27.8427 9.10513 27.4064 9.25 26.9514 9.25H23.5204C23.0655 9.25 22.6291 9.10513 22.3074 8.84727C21.9857 8.58941 21.805 8.23967 21.805 7.875V2.375ZM1.21924 16.125C1.21924 15.7603 1.39998 15.4106 1.72169 15.1527C2.0434 14.8949 2.47974 14.75 2.93471 14.75H6.36567C6.82064 14.75 7.25698 14.8949 7.57869 15.1527C7.90041 15.4106 8.08114 15.7603 8.08114 16.125V21.625C8.08114 21.9897 7.90041 22.3394 7.57869 22.5973C7.25698 22.8551 6.82064 23 6.36567 23H2.93471C2.47974 23 2.0434 22.8551 1.72169 22.5973C1.39998 22.3394 1.21924 21.9897 1.21924 21.625V16.125ZM1.21924 2.375C1.21924 2.01033 1.39998 1.66059 1.72169 1.40273C2.0434 1.14487 2.47974 1 2.93471 1H13.2276C13.6825 1 14.1189 1.14487 14.4406 1.40273C14.7623 1.66059 14.943 2.01033 14.943 2.375V7.875C14.943 8.23967 14.7623 8.58941 14.4406 8.84727C14.1189 9.10513 13.6825 9.25 13.2276 9.25H2.93471C2.47974 9.25 2.0434 9.10513 1.72169 8.84727C1.39998 8.58941 1.21924 8.23967 1.21924 7.875V2.375ZM14.943 16.125C14.943 15.7603 15.1238 15.4106 15.4455 15.1527C15.7672 14.8949 16.2036 14.75 16.6585 14.75H26.9514C27.4064 14.75 27.8427 14.8949 28.1644 15.1527C28.4861 15.4106 28.6669 15.7603 28.6669 16.125V21.625C28.6669 21.9897 28.4861 22.3394 28.1644 22.5973C27.8427 22.8551 27.4064 23 26.9514 23H16.6585C16.2036 23 15.7672 22.8551 15.4455 22.5973C15.1238 22.3394 14.943 21.9897 14.943 21.625V16.125Z" stroke="white" stroke-width="2" stroke-linecap="round" stroke-linejoin="round"/>
</svg>
