<svg xmlns="http://www.w3.org/2000/svg" viewBox="0 0 64 64" id="RepairTools"><g data-name="Layer 24" fill="#ff1e1c" class="color000000 svgShape"><path d="M41 23a20 20 0 1 0 20 20 20 20 0 0 0-20-20Zm13.4 32-2.69-2.69-1.42 1.42L53 56.4A17.89 17.89 0 0 1 42 61v-4h-2v4a17.89 17.89 0 0 1-11-4.6l2.69-2.69-1.42-1.42L27.6 55a17.89 17.89 0 0 1-4.55-11H27v-2h-3.95a17.89 17.89 0 0 1 4.55-11l2.69 2.69 1.42-1.42L29 29.6a17.89 17.89 0 0 1 11-4.55V29h2v-3.95a17.89 17.89 0 0 1 11 4.55l-2.69 2.69 1.42 1.42L54.4 31A17.89 17.89 0 0 1 59 42h-4v2h4a17.89 17.89 0 0 1-4.6 11Z" fill="#ff1e1c" class="color000000 svgShape"></path><path d="M41 31a12 12 0 1 0 12 12 12 12 0 0 0-12-12zm10 12a9.62 9.62 0 0 1-.37 2.64L46 43l4.61-2.64A9.62 9.62 0 0 1 51 43zm-20 0a9.62 9.62 0 0 1 .37-2.64L36 43l-4.61 2.64A9.62 9.62 0 0 1 31 43zm12 0a2 2 0 1 1-2-2 2 2 0 0 1 2 2zm0-3.43c-.16-.09-.31-.19-.47-.26l3-5.22a10.21 10.21 0 0 1 1.79 1.17zm-4 0-4.3-4.31a10.21 10.21 0 0 1 1.79-1.17l3 5.22c-.2.07-.35.17-.49.26zM37.57 41c-.09.16-.19.31-.26.47l-5.22-3a10.21 10.21 0 0 1 1.17-1.79zm-.26 3.57c.07.16.17.31.26.47l-4.31 4.3a10.21 10.21 0 0 1-1.17-1.79zM39 46.43c.16.09.31.19.47.26l-3 5.22a10.21 10.21 0 0 1-1.79-1.17zm4 0 4.3 4.31a10.21 10.21 0 0 1-1.79 1.17l-3-5.22c.2-.07.35-.17.49-.26zM44.43 45c.09-.16.19-.31.26-.47l5.22 3a10.21 10.21 0 0 1-1.17 1.79zm.26-3.57c-.07-.16-.17-.31-.26-.47l4.31-4.3a10.21 10.21 0 0 1 1.17 1.79zm-1-8.08L41 38l-2.64-4.61a9.6 9.6 0 0 1 5.28 0zm-5.33 19.28L41 48l2.64 4.61a9.6 9.6 0 0 1-5.28 0zM16 46.07V26.64a9.09 9.09 0 0 0-1.75-16.9 1 1 0 0 0-1.25 1V16a2 2 0 0 1-4 0v-5.29a1 1 0 0 0-1.25-1A9.09 9.09 0 0 0 6 26.64v19.43A9.09 9.09 0 0 0 7.75 63a1 1 0 0 0 .86-.18A1 1 0 0 0 9 62v-5a2 2 0 0 1 3.43-1.39A1.94 1.94 0 0 1 13 57v5a1 1 0 0 0 1 1 1.07 1.07 0 0 0 .25 0A9.09 9.09 0 0 0 16 46.07zm-1 14.51V57a3.91 3.91 0 0 0-1.16-2.8A4 4 0 0 0 7 57v3.62a7.1 7.1 0 0 1 .38-12.94 1 1 0 0 0 .62-.97V26a1 1 0 0 0-.62-.93A7.1 7.1 0 0 1 7 12.13V16a4 4 0 0 0 8 0v-3.87a7.1 7.1 0 0 1-.38 12.94A1 1 0 0 0 14 26v20.71a1 1 0 0 0 .62.93A7.1 7.1 0 0 1 15 60.58zM34 13h2a1 1 0 0 0 .71-.29l2-2A1 1 0 0 0 39 10V8a1 1 0 0 0-.29-.71l-2-2A1 1 0 0 0 36 5h-2a1 1 0 0 0-.71.29l-2 2A1 1 0 0 0 31 8v2a1 1 0 0 0 .29.71l2 2A1 1 0 0 0 34 13zm-1-4.59L34.41 7h1.18L37 8.41v1.18L35.59 11h-1.18L33 9.59z" fill="#ff1e1c" class="color000000 svgShape"></path><path d="M31.29 16.71A1 1 0 0 0 32 17h6a1 1 0 0 0 .71-.29l4-4A1 1 0 0 0 43 12V6a1 1 0 0 0-.29-.71l-4-4A1 1 0 0 0 38 1h-6a1 1 0 0 0-.71.29l-4 4A1 1 0 0 0 27 6v6a1 1 0 0 0 .29.71zM29 6.41 32.41 3h5.18L41 6.41v5.18L37.59 15h-5.18L29 11.59zM56 11h-2a1 1 0 0 0-.71.29l-2 2A1 1 0 0 0 51 14v2a1 1 0 0 0 .29.71l2 2A1 1 0 0 0 54 19h2a1 1 0 0 0 .71-.29l2-2A1 1 0 0 0 59 16v-2a1 1 0 0 0-.29-.71l-2-2A1 1 0 0 0 56 11zm1 4.59L55.59 17h-1.18L53 15.59v-1.18L54.41 13h1.18L57 14.41z" fill="#ff1e1c" class="color000000 svgShape"></path><path d="m62.71 11.29-4-4A1 1 0 0 0 58 7h-6a1 1 0 0 0-.71.29l-4 4A1 1 0 0 0 47 12v6a1 1 0 0 0 .29.71l4 4A1 1 0 0 0 52 23h6a1 1 0 0 0 .71-.29l4-4A1 1 0 0 0 63 18v-6a1 1 0 0 0-.29-.71ZM61 17.59 57.59 21h-5.18L49 17.59v-5.18L52.41 9h5.18L61 12.41Z" fill="#ff1e1c" class="color000000 svgShape"></path></g></svg>